<?xml version="1.0" encoding="utf-8"?>
<!-- Generator: Adobe Illustrator 17.0.0, SVG Export Plug-In . SVG Version: 6.00 Build 0)  -->
<!DOCTYPE svg PUBLIC "-//W3C//DTD SVG 1.1//EN" "http://www.w3.org/Graphics/SVG/1.1/DTD/svg11.dtd">
<svg version="1.1" id="Background" xmlns="http://www.w3.org/2000/svg" xmlns:xlink="http://www.w3.org/1999/xlink" x="0px" y="0px"
	 width="171.786px" height="66.862px" viewBox="0 0 171.786 66.862" enable-background="new 0 0 171.786 66.862"
	 xml:space="preserve">
<circle fill="#00A85D" cx="117.535" cy="14.381" r="14.381"/>
<g>
	<path fill="#403528" d="M10.438,39.558l-1.301-4.637H3.01l-1.302,4.637H0l5.314-18.98h1.545l5.314,18.98H10.438z M6.616,25.431
		C6.372,24.563,6.1,23.37,6.1,23.37H6.046c0,0-0.243,1.193-0.487,2.061l-2.17,7.972h5.397L6.616,25.431z"/>
	<path fill="#403528" d="M16.19,39.558v-18.98h3.878c5.07,0,6.941,4.067,6.941,9.49c0,5.423-1.871,9.49-6.725,9.49H16.19z
		 M20.285,38.013c3.524,0,5.07-3.118,5.07-7.945c0-4.826-1.546-7.944-5.287-7.944h-2.224v15.89H20.285z"/>
	<path fill="#403528" d="M30.892,30.067c0-5.504,1.708-9.761,6.101-9.761c4.365,0,6.101,4.257,6.101,9.761
		c0,5.505-1.735,9.762-6.101,9.762C32.6,39.829,30.892,35.572,30.892,30.067z M41.439,30.067c0-4.881-1.329-8.216-4.447-8.216
		c-3.146,0-4.474,3.335-4.474,8.216c0,4.881,1.328,8.216,4.474,8.216C40.11,38.283,41.439,34.948,41.439,30.067z"/>
	<path fill="#403528" d="M48.031,39.558v-18.98h4.501c4.284,0,6.074,2.956,6.074,6.833c0,3.851-1.816,6.833-6.183,6.833h-2.738
		v5.314H48.031z M52.451,32.671c3.146,0,4.528-2.115,4.528-5.261c0-3.146-1.383-5.26-4.556-5.26h-2.738v10.521H52.451z"/>
	<path fill="#403528" d="M65.308,39.558V22.177h-4.392v-1.6h10.412v1.6h-4.365v17.381H65.308z"/>
	<path fill="#403528" d="M92.645,39.558l-1.301-4.637h-6.128l-1.302,4.637h-1.708l5.314-18.98h1.545l5.314,18.98H92.645z
		 M88.822,25.431c-0.244-0.867-0.516-2.061-0.516-2.061h-0.055c0,0-0.243,1.193-0.487,2.061l-2.17,7.972h5.396L88.822,25.431z"/>
	<path fill="#403528" d="M139.376,39.558l-2.929-6.372c-0.434,0.082-0.922,0.108-1.383,0.108h-2.738v6.264h-1.654v-18.98h4.501
		c4.203,0,6.074,2.685,6.074,6.345c0,2.684-1.058,4.827-3.281,5.776l3.2,6.859H139.376z M135.092,31.722
		c3.037,0,4.528-1.871,4.528-4.8c0-2.928-1.491-4.772-4.556-4.772h-2.738v9.571H135.092z"/>
	<path fill="#403528" d="M145.155,39.558v-18.98h9.191v1.6h-7.538v7.918h6.48v1.572h-6.48v6.318h7.538v1.572H145.155z"/>
	<path fill="#403528" d="M162.595,39.558v-18.98h9.191v1.6h-7.538v7.918h6.48v1.572h-6.48v6.318h7.538v1.572H162.595z"/>
</g>
<g>
	<g>
		<path fill="#403528" d="M60.611,57.526c0.103-0.104,0.587-0.572,0.749-0.572c0.146,0,0.22,0.102,0.146,0.337l0.029,0.029
			c1.424-1.233,2.349-2.554,2.349-3.038c0-0.25-0.161-0.353-0.397-0.294c-0.264,0.073-1.937,0.132-5.226,3.977
			c-1.027,1.204-1.776,2.834-1.776,3.949c0,1.042,0.499,1.658,1.557,1.658c1.85,0,5.079-2.406,6.474-3.641
			c0.044,0.75-0.192,0.955-0.749,1.483c-2.862,2.759-5.299,3.64-6.679,3.64c-1.63,0-2.804-1.012-2.804-2.7
			c0-2.157,1.806-4.478,3.317-5.901c1.247-1.189,4.33-3.537,6.077-3.537c0.881,0,1.453,0.469,1.497,1.394
			c0.102,1.982-3.685,5.739-5.534,6.018c-0.426,0.059-0.822-0.234-0.822-0.704c0-0.44,0.396-0.881,0.705-1.146L60.611,57.526z"/>
		<path fill="#403528" d="M68.034,62.136c-0.279,0.22-1.219,0.982-1.556,0.982c-0.411,0-1.263-0.969-1.292-1.731
			c-0.059-1.835,3.758-3.714,5.461-3.758c0.675-0.015,0.954,0.528,0.954,0.704c0,0.176-0.382,0.323-0.514,0.367
			c0.278,0.117,0.425,0.279,0.425,0.602c0,0.471-1.276,1.498-1.276,2.188c0,0.25,0.22,0.351,0.455,0.351
			c0.616,0,1.453-0.748,2.084-1.174l0.117,0.543c-0.631,0.72-2.598,2.291-3.317,2.291c-0.484,0-0.704-0.354-0.704-0.779
			c0-0.469,0.353-1.247,0.543-1.644l-0.029-0.029L68.034,62.136z M66.258,61.753c0.015,0.074,0.073,0.338,0.294,0.294
			c0.294-0.059,0.749-0.015,3.655-2.95l-0.029-0.029C66.683,60.139,66.258,61.034,66.258,61.753z"/>
		<path fill="#403528" d="M78.482,62.253c-0.338,0.322-0.866,0.924-1.365,0.924c-0.353,0-0.632-0.264-0.646-0.615
			c-0.015-0.426,0.338-1.101,1.292-2.555c0.029-0.029,0.088-0.146,0.088-0.191c0-0.059-0.044-0.102-0.102-0.102
			c-0.146,0-0.47,0.352-0.572,0.455c-0.764,0.808-1.586,1.688-2.275,2.54c-0.161,0.19-0.367,0.41-0.631,0.41
			c-0.705,0-0.91-1.145-0.91-1.673c0.015-1.438,1.57-3.405,2.451-3.288c0.22,0.029,0.66,0.029,0.66,0.338
			c0,0.293-0.411,0.733-0.587,0.939c-0.265,0.309-0.587,0.572-0.808,0.895c-0.161,0.221-0.426,0.455-0.426,0.764
			c0,0.029,0.044,0.133,0.104,0.133c0.073,0,0.249-0.191,0.293-0.235c0.72-0.749,3.332-3.361,4.286-3.361
			c0.396,0,0.603,0.294,0.603,0.675c0,0.646-1.043,1.835-1.365,2.408l0.029,0.029l3.259-2.569c0.146-0.118,0.514-0.411,0.689-0.411
			c0.117,0,0.265,0.353,0.309,0.411c0.103,0.161,0.264,0.382,0.264,0.587c0,0.25-0.293,0.572-0.455,0.749
			c-1.145,1.263-1.232,1.497-1.247,1.835c-0.015,0.176,0.176,0.41,0.353,0.367c0.308-0.074,0.47-0.074,2.274-1.307l0.089,0.69
			c-0.69,0.543-2.804,2.275-3.626,2.275c-0.44,0-0.749-0.426-0.749-0.852c0-0.734,0.72-1.775,1.087-2.378l-0.029-0.029
			L78.482,62.253z"/>
		<path fill="#403528" d="M85.83,60.358c-0.264,0.926,0.089,1.689,0.647,1.615c0.47-0.073,0.733-0.47,0.983-0.764
			c-0.117-0.191-0.205-0.338-0.205-0.572c0-0.852,1.174-2.289,2.04-2.289c0.353,0,0.44,0.366,0.44,0.645
			c0,0.617-0.455,1.293-0.705,1.836c0.603,0.117,1.087-0.206,1.557-0.543l0.146,0.484c-0.66,0.689-1.409,0.924-2.349,0.939
			c-0.631,0.66-1.659,1.556-2.628,1.556c-0.954,0-1.086-1.425-1.086-2.128c0-1.85,0.866-3.421,2.025-4.801
			c1.19-1.424,3.494-3.215,4.11-3.215c0.294,0,0.426,0.264,0.426,0.543c0,1.336-2.173,3.538-3.112,4.448L85.83,60.358z
			 M86.359,58.804l0.029,0.029c3.067-3.054,3.391-3.891,3.64-4.419l-0.029-0.029C88.546,55.618,87.225,57.101,86.359,58.804z"/>
		<path fill="#403528" d="M92.301,59.948c-0.514,0.807-1.13,1.189-1.762,1.82l-0.059-0.646c0.382-0.309,0.69-0.675,0.969-1.071
			c-0.308-0.029-0.395-0.148-0.395-0.455c0-1.058,1.497-2.114,1.849-2.114c0.147,0,0.265,0.117,0.265,0.25
			c0,0.147-0.044,0.279-0.103,0.411c1.38-0.19,2.187-0.367,2.334-0.19c0.22,0.278,0.322,0.514,0.353,0.777
			c0,0.455-0.279,0.676-0.617,0.954c-0.426,0.367-1.145,1.087-1.145,1.673c0,0.235,0.234,0.412,0.455,0.412
			c0.631,0,1.556-0.955,2.04-1.321l0.103,0.543c-0.558,0.632-2.245,2.261-3.082,2.261c-0.617,0-0.998-0.572-0.998-1.131
			c0-0.998,0.763-1.775,1.35-2.48l-0.029-0.029L92.301,59.948z"/>
		<path fill="#403528" d="M101.253,61.226c-0.661,0.807-1.952,2.128-3.068,2.128c-0.866,0-1.262-0.998-1.262-1.747
			c0-1.791,1.834-3.537,2.715-3.537c0.25,0,0.646,0.088,0.646,0.41c0,0.734-1.453,2.041-2.07,2.467
			c-0.117,0.602,0.104,0.925,0.778,0.925c0.778,0,1.541-0.778,2.129-1.204L101.253,61.226z M99.844,57.143
			c0-0.601,0.704-1.129,1.277-1.129c0.264,0,0.484,0.189,0.484,0.455c0,0.586-0.544,1.306-1.175,1.306
			C100.078,57.775,99.844,57.497,99.844,57.143z"/>
		<path fill="#403528" d="M107.798,58.598c-0.485,0.763-1.189,1.718-1.189,2.657c0,0.234,0.015,0.733,0.338,0.733
			c0.499,0,1.85-1.189,2.319-1.497l0.103,0.484c-0.69,0.764-2.202,2.305-3.273,2.305c-0.558,0-0.778-0.588-0.778-1.057
			c0-0.367,0.059-0.749,0.117-1.116c-0.514,0.44-1.879,1.864-2.539,1.864c-0.66,0-1.071-1.409-1.071-1.923
			c0-1.731,2.921-3.2,4.169-3.273c0.308-0.015,0.426,0.19,0.616,0.411c0.484-0.837,1.776-3.875,2.848-3.875
			c0.294,0,0.47,0.293,0.47,0.558c0,0.44-0.397,1.042-0.631,1.409L107.798,58.598z M103.115,61.356
			c-0.015,0.133,0.059,0.25,0.22,0.279c0.176,0.045,2.539-1.717,2.774-2.583C103.525,59.89,103.203,60.388,103.115,61.356z"/>
		<path fill="#403528" d="M113.929,61.005l-0.029-0.029c-0.528,0.587-2.069,1.923-2.877,1.923c-0.822,0-1.101-1.071-1.101-1.718
			c0-1.922,3.2-3.479,4.33-3.582c0.205-0.014,0.778,0.045,0.778,0.367c0,0.265-0.294,0.471-0.484,0.603l-1.674,0.909
			c-0.925,0.5-2.011,0.91-1.879,1.983c0.015,0.117,0.103,0.146,0.235,0.146c0.41,0.045,1.306-0.309,1.864-0.91l1.57-1.732
			c0.146-0.16,0.323-0.41,0.558-0.41c0.294,0,0.558,0.499,0.558,0.748c0,0.221-0.205,0.558-0.308,0.749l-1.102,2.056l0.029,0.029
			l2.231-1.601l0.073,0.616l-3.097,2.319c-1.542,2.452-2.833,3.392-3.406,3.392c-0.205,0-0.337-0.162-0.337-0.354
			c0-1.057,2.231-2.906,3.038-3.492L113.929,61.005z"/>
		<path fill="#403528" d="M122.689,60.946c-0.896,1.042-2.511,2.422-3.964,2.422c-1.071,0-1.57-0.954-1.6-1.923
			c-0.059-1.923,2.069-3.89,3.978-3.876c0.47,0,1.057,0.118,1.057,0.705c0,0.719-0.719,1.806-3.537,2.731l-0.029,0.322
			c-0.044,0.559,0.44,0.75,0.91,0.75c1.042,0,2.275-1.072,3.053-1.689L122.689,60.946z M120.869,58.583
			c0-0.104-0.073-0.191-0.177-0.162c-0.733,0.191-1.585,0.896-1.981,1.865C120.003,59.845,120.884,58.833,120.869,58.583z"/>
	</g>
	<g>
		<rect x="4.62" y="58.432" fill="#403528" width="42.991" height="1"/>
		<rect x="126.384" y="58.432" fill="#403528" width="42.991" height="1"/>
	</g>
</g>
<g>
	<path fill="#403528" d="M109.81,30.147c-0.092,0-0.185-0.017-0.275-0.053c-5.338-2.104-8.787-7.173-8.787-12.912
		c0-7.65,6.225-13.875,13.875-13.875s13.875,6.225,13.875,13.875c0,5.588-3.326,10.606-8.474,12.784
		c-0.378,0.163-0.821-0.017-0.982-0.398c-0.162-0.381,0.017-0.821,0.398-0.982c4.591-1.943,7.558-6.419,7.558-11.403
		c0-6.823-5.552-12.375-12.375-12.375c-6.823,0-12.375,5.552-12.375,12.375c0,5.119,3.076,9.64,7.838,11.518
		c0.385,0.151,0.574,0.587,0.422,0.973C110.392,29.968,110.109,30.147,109.81,30.147z"/>
	<path fill="#403528" d="M114.623,40.308c-0.414,0-0.75-0.336-0.75-0.75v-16.94l-4.411-3.587c-0.321-0.262-0.369-0.734-0.108-1.056
		c0.263-0.321,0.733-0.369,1.056-0.108l4.964,4.038v17.653C115.373,39.972,115.037,40.308,114.623,40.308z"/>
	<path fill="#403528" d="M114.624,23.011c-0.229,0-0.454-0.104-0.601-0.3c-0.249-0.332-0.182-0.802,0.149-1.05l5-3.75
		c0.332-0.249,0.804-0.18,1.05,0.149c0.249,0.332,0.182,0.802-0.149,1.05l-5,3.75C114.938,22.962,114.78,23.011,114.624,23.011z"/>
</g>
</svg>
