<?xml version="1.0" encoding="utf-8"?>
<!-- Generator: Adobe Illustrator 17.1.0, SVG Export Plug-In . SVG Version: 6.00 Build 0)  -->
<!DOCTYPE svg PUBLIC "-//W3C//DTD SVG 1.1//EN" "http://www.w3.org/Graphics/SVG/1.1/DTD/svg11.dtd">
<svg version="1.1" id="Layer_1" xmlns="http://www.w3.org/2000/svg" xmlns:xlink="http://www.w3.org/1999/xlink" x="0px" y="0px"
	 viewBox="0 0 500 500" enable-background="new 0 0 500 500" xml:space="preserve">
<circle fill="none" stroke="#394856" stroke-width="15" stroke-miterlimit="10" cx="250" cy="250" r="237"/>
<g>
	<rect x="185.873" y="208" fill="#394856" width="125.333" height="2.667"/>
	<rect x="185.873" y="216.667" fill="#394856" width="125.333" height="2.667"/>
	<rect x="185.873" y="225.333" fill="#394856" width="125.333" height="2.667"/>
	<rect x="185.873" y="234" fill="#394856" width="125.333" height="2.667"/>
	<rect x="185.873" y="242.667" fill="#394856" width="125.333" height="2.667"/>
	<rect x="185.873" y="251.333" fill="#394856" width="125.333" height="2.667"/>
	<rect x="185.873" y="260" fill="#394856" width="125.333" height="2.667"/>
	<rect x="185.873" y="268.667" fill="#394856" width="125.333" height="2.667"/>
	<rect x="185.873" y="277.333" fill="#394856" width="125.333" height="2.667"/>
	<rect x="185.873" y="286" fill="#394856" width="79" height="2.667"/>
</g>
<path fill="#394856" d="M349.04,170.566c0,51.82,0,103.641,0,155.461c-27.688,0.025-55.376,0.073-83.064,0.07
	c-39.312-0.004-78.624-0.045-117.936-0.07c0-51.82,0-103.641,0-155.461c28.21,0.025,56.421,0.072,84.631,0.07
	C271.461,170.632,310.25,170.591,349.04,170.566z M168.98,191.711c0,38.227,0,75.936,0,113.617c53.233,0,106.136,0,159.19,0
	c0-37.972,0-75.692,0-113.617C275,191.711,222.088,191.711,168.98,191.711z"/>
<path fill="#FFFFFF" d="M148.31,326.027c39.312,0.025,78.624,0.066,117.936,0.07c27.688,0.003,55.376-0.045,83.064-0.07
	c0,13.068,0,26.135,0,39.23c-67,0-134,0-201,0C148.31,352.163,148.31,339.095,148.31,326.027z M297.455,358.726
	c-0.953-1.128-1.54-1.928-2.232-2.624c-5.257-5.286-10.432-10.66-15.878-15.745c-1.348-1.258-3.584-2.166-5.428-2.194
	c-12.422-0.19-24.911,0.68-37.254-0.324c-11.673-0.95-20.687,1.974-27.72,11.528c-2.387,3.242-6.03,5.561-9.098,8.301
	c0.293,0.353,0.586,0.706,0.879,1.059C232.782,358.726,264.841,358.726,297.455,358.726z"/>
<path fill="#FFFFFF" d="M349.04,170.566c-38.79,0.025-77.579,0.066-116.369,0.07c-28.21,0.003-56.421-0.045-84.631-0.07
	c0-2.09,0-4.18,0-6.273c67-0.003,134-0.003,201,0C349.04,166.387,349.04,168.477,349.04,170.566z"/>
<path fill="#394856" d="M297.455,358.726c-32.614,0-64.673,0-96.733,0c-0.293-0.353-0.586-0.706-0.879-1.059
	c3.069-2.74,6.711-5.059,9.098-8.301c7.033-9.554,16.047-12.478,27.72-11.528c12.343,1.005,24.832,0.135,37.254,0.324
	c1.844,0.028,4.081,0.936,5.428,2.194c5.446,5.084,10.621,10.459,15.878,15.745C295.915,356.798,296.502,357.598,297.455,358.726z"
	/>
</svg>
