<?xml version="1.0" encoding="utf-8"?>
<!-- Generator: Adobe Illustrator 17.1.0, SVG Export Plug-In . SVG Version: 6.00 Build 0)  -->
<!DOCTYPE svg PUBLIC "-//W3C//DTD SVG 1.1//EN" "http://www.w3.org/Graphics/SVG/1.1/DTD/svg11.dtd">
<svg version="1.1" id="Layer_1" xmlns="http://www.w3.org/2000/svg" xmlns:xlink="http://www.w3.org/1999/xlink" x="0px" y="0px"
	 viewBox="0 0 500 500" enable-background="new 0 0 500 500" xml:space="preserve">
<g>
	<path fill="#394856" d="M376.328,167.07c-3.56,21.391-15.076,38.797-27.842,55.575c-0.593,0.779-1.253,1.507-2.121,2.545
		c-2.715-6.479-5.448-12.587-7.739-18.856c-0.408-1.116,0.872-2.983,1.625-4.366c4.761-8.744,9.909-17.295,14.274-26.23
		c2.275-4.657,5.038-10.442,1.072-15.083c-3.857-4.513-10.021-3.273-15.074-1.874c-10.05,2.783-19.96,6.123-29.79,9.619
		c-2.643,0.94-4.415,0.941-6.771-0.571c-5.008-3.214-10.27-6.032-15.931-9.304c13.395-7.255,26.964-13.218,41.461-16.889
		c8.416-2.131,16.927-3.598,25.659-1.749c11.709,2.479,17.892,8.665,20.281,20.395c0.194,0.951,0.593,1.859,0.897,2.787
		C376.328,164.403,376.328,165.736,376.328,167.07z"/>
	<path fill="#394856" d="M376.328,335.07c-0.508,2.059-0.947,4.138-1.536,6.173c-3.06,10.56-12.258,17.847-24.532,17.514
		c-9.03-0.245-18.249-1.671-26.941-4.135c-9.994-2.832-19.5-7.387-29.851-11.442c6.38-4.338,11.759-8.183,17.372-11.648
		c1.057-0.653,3.116-0.022,4.598,0.409c8.757,2.545,17.354,5.8,26.244,7.69c13.801,2.934,18.42-2.111,13.44-15.19
		c-3.456-9.078-8.974-17.357-13.294-26.13c-0.87-1.768-1.123-4.333-0.575-6.214c1.695-5.826,3.913-11.501,6.159-17.888
		c8.623,10.869,16.429,21.8,21.719,34.191c3.099,7.258,4.844,15.094,7.198,22.67C376.328,332.403,376.328,333.736,376.328,335.07z"
		/>
	<path fill="#394856" d="M335.242,252.107c-0.035,47.927-39.223,86.935-87.249,86.847c-47.625-0.088-86.6-39.26-86.578-87.016
		c0.023-47.943,39.136-86.853,87.246-86.794C296.322,165.203,335.276,204.33,335.242,252.107z M253.79,203.242
		c0.75,0.922,1.33,2.369,2.279,2.675c4.191,1.349,5.679-1.737,6.753-4.063c-1.028-2.425-1.851-4.366-2.907-6.858
		c-0.562,2.535-1.12,4.858-1.585,7.2c-0.653,3.285-1.978,2.915-3.696,0.742c-1.069-0.299-2.574-0.272-3.099-0.976
		c-0.7-0.94-1.299-2.981-0.786-3.617c1.943-2.407,4.28-4.518,6.603-6.591c3.296-2.941,9.366-1.412,10.868,2.802
		c1.905-2.024,3.75-3.984,6.619-7.031c-6.221-1.55-11.249-2.81-16.28-4.055c-3.925-0.972-7.276-0.368-10.69,2.26
		c-2.806,2.159-6.379,3.543-9.819,4.603c-4.775,1.47-9.743,2.315-14.906,3.491c0.285-5.075,5.97-5.468,8.802-8.707
		c-3.419,0.731-6.536,2.044-9.733,3.12c-2.966,0.999-5.63,1.869-6.982,5.344c-0.869,2.234-3.121,5.46-4.869,5.536
		c-5.194,0.224-9.734,3.131-12.218,6.018c-5.857,6.808-10.466,14.85-14.645,22.88c-2.605,5.005-3.603,10.21-0.752,16.618
		c3.513,7.898,7.38,15.465,12.016,22.673c1.301,2.023,3.64,3.353,5.355,5.143c2.711,2.829,4.582,5.759,1.094,9.48
		c-0.742,0.791-1.045,2.601-0.713,3.684c1.328,4.329,0.397,7.41-5.168,9.014c2.001,2.879,3.306,5.589,5.335,7.549
		c30.634,29.586,81.175,24.132,105.036-11.351c11.274-16.765,14.37-35.145,10.019-54.827c-0.779-3.522-2.432-6.419-6.462-4.371
		c-5.348,2.717-10.121,2.443-15.402-0.662c1.476,2.025,2.952,4.05,3.817,5.237c3.173,0,5.301,0,7.428,0
		c-0.056,2.156,0.11,4.351-0.255,6.453c-0.207,1.19-1.2,2.296-1.991,3.323c-2.647,3.436-5.362,6.819-7.538,9.573
		c1.044-0.29,3.502-0.974,5.96-1.657c0.457,0.279,0.914,0.557,1.37,0.836c-2.177,4.469-3.939,9.21-6.638,13.338
		c-3.33,5.092-7.688,9.475-5.797,16.45c1.077,3.972-0.658,6.995-4.273,9.149c-1.283,0.765-2.15,2.376-2.972,3.742
		c-4.137,6.879-9.068,12.699-17.851,13.133c-1.193,0.059-3.017-0.727-3.57-1.686c-2.512-4.358-4.795-8.863-6.864-13.449
		c-0.437-0.968,0.022-2.72,0.665-3.729c2.93-4.594,0.372-7.958-2.033-11.606c-1.015-1.54-1.695-3.662-1.615-5.48
		c0.12-2.735,0.254-4.751-3.418-4.225c-0.712,0.102-1.951-0.189-2.2-0.678c-1.736-3.418-3.966-1.53-6.336-0.979
		c-5.69,1.322-11.064,0.572-15.727-3.357c-6.825-5.752-5.635-19.246-1.832-25.118c2.99-4.617,7.772-8.086,11.842-11.977
		c0.659-0.63,1.728-1.041,2.654-1.149c4.607-0.536,9.224-1.021,13.85-1.326c1.168-0.077,3.394,0.493,3.425,0.895
		c0.448,5.908,6.25,4.763,9.36,8.161c1.191-4.278,3.39-4.639,6.528-3.278c1.437,0.623,3.259,0.483,4.906,0.479
		c5.894-0.012,6.714-1.389,4.114-6.943c-4.512,1.458-8.371,0.998-10.29-4.775c-2.735,3.245-4.691,3.776-6.52-0.367
		c-0.693-1.569-3.268-2.306-4.986-3.422c-0.116,0.188-0.232,0.376-0.348,0.565c1.405,2.015,2.81,4.03,4.216,6.045
		c-0.395,0.275-0.79,0.551-1.184,0.826c-3.898-5.454-6.793-7.297-10.854-5.614c-2.485,1.03-4.16,3.889-6.582,5.238
		c-2.009,1.119-4.579,1.233-6.9,1.792c-0.345-1.789-0.839-3.566-0.973-5.371c-0.066-0.891,0.531-1.832,0.915-3.021
		c2.275,0.262,4.382,0.504,7.376,0.849c-0.335-2.217-0.619-4.101-0.734-4.866C246.144,209.553,249.967,206.398,253.79,203.242z
		 M270.76,214.338c0.398,1.816,0.8,5.204,1.192,5.203c3.482-0.01,6.963-0.62,11.222-1.15c-2.672-2.073-4.636-3.597-6.922-5.37
		C276.212,218.852,273.33,212.526,270.76,214.338z M281.396,235.647c3.256,10.726,6.022,14.499,12.257,16.563
		C289.055,245.997,285.226,240.822,281.396,235.647z"/>
	<path fill="#394856" d="M209.196,158.103c-6.865,4.054-12.503,7.545-18.331,10.684c-1.123,0.605-3.075,0.093-4.501-0.357
		c-10.272-3.239-20.341-7.304-30.793-9.742c-14.472-3.376-19.277,2.064-13.791,15.843c3.717,9.336,9.23,17.986,14.292,26.74
		c1.625,2.81,2.487,4.842,0.826,8.081c-2.488,4.852-4.165,10.119-6.238,15.34c-0.046,0-0.52,0.132-0.642-0.019
		c-12.147-15.126-23.362-30.881-27.815-50.143c-1.301-5.629-1.316-12.025-0.084-17.669c2.34-10.72,12.048-17.179,24.374-17.7
		c11.876-0.503,23.125,2.452,34.022,6.699C189.928,149.529,199.119,153.774,209.196,158.103z"/>
	<path fill="#394856" d="M202.789,342.75c-17.246,8.154-34.185,15.932-53.297,16.2c-21.177,0.297-32.571-14.165-27.635-34.844
		c4.511-18.897,15.53-34.293,27.262-49.94c2.554,6.984,5.042,13.36,7.123,19.866c0.384,1.202-0.708,3.015-1.406,4.402
		c-4.536,9.013-9.998,17.669-13.528,27.054c-4.472,11.891-0.41,16.578,12.22,14.325c9.238-1.648,18.218-4.9,27.181-7.838
		c2.834-0.929,4.702-0.985,7.193,0.905C192.493,336.364,197.504,339.295,202.789,342.75z"/>
	<path fill="#394856" d="M246.444,209.672c-3.482-1.181-5.794-1.965-9.009-3.056c2.058-0.984,4.543-2.173,7.028-3.362
		c-0.4-0.631-0.8-1.262-1.2-1.893C244.13,203.627,244.997,205.892,246.444,209.672z"/>
</g>
<circle fill="none" stroke="#394856" stroke-width="15" stroke-miterlimit="10" cx="248.521" cy="250" r="237"/>
<circle fill="#FFFFFF" cx="248.644" cy="251.977" r="73.977"/>
<line fill="none" stroke="#394856" stroke-width="2" stroke-miterlimit="10" x1="188.667" y1="192.107" x2="188.667" y2="301.893"/>
<line fill="none" stroke="#394856" stroke-width="2" stroke-miterlimit="10" x1="203.667" y1="179" x2="203.667" y2="317"/>
<line fill="none" stroke="#394856" stroke-width="2" stroke-miterlimit="10" x1="218.667" y1="171" x2="218.667" y2="323"/>
<line fill="none" stroke="#394856" stroke-width="2" stroke-miterlimit="10" x1="233.667" y1="171" x2="233.667" y2="331.667"/>
<line fill="none" stroke="#394856" stroke-width="2" stroke-miterlimit="10" x1="248.667" y1="171" x2="248.667" y2="331.667"/>
<line fill="none" stroke="#394856" stroke-width="2" stroke-miterlimit="10" x1="263.667" y1="171" x2="263.667" y2="331.667"/>
<line fill="none" stroke="#394856" stroke-width="2" stroke-miterlimit="10" x1="278.667" y1="171" x2="278.667" y2="323"/>
<line fill="none" stroke="#394856" stroke-width="2" stroke-miterlimit="10" x1="293.667" y1="182.117" x2="293.667" y2="313.667"/>
<line fill="none" stroke="#394856" stroke-width="2" stroke-miterlimit="10" x1="308.667" y1="201.361" x2="308.667" y2="306.333"/>
<line fill="none" stroke="#394856" stroke-width="2" stroke-miterlimit="10" x1="196.667" y1="186.333" x2="293.667" y2="186.333"/>
<line fill="none" stroke="#394856" stroke-width="2" stroke-miterlimit="10" x1="194.951" y1="198.333" x2="308.667" y2="198.333"/>
<line fill="none" stroke="#394856" stroke-width="2" stroke-miterlimit="10" x1="176.833" y1="210.333" x2="318.667" y2="210.333"/>
<line fill="none" stroke="#394856" stroke-width="2" stroke-miterlimit="10" x1="176.833" y1="222.333" x2="327.68" y2="222.333"/>
<line fill="none" stroke="#394856" stroke-width="2" stroke-miterlimit="10" x1="173.667" y1="234.333" x2="327.68" y2="234.333"/>
<line fill="none" stroke="#394856" stroke-width="2" stroke-miterlimit="10" x1="164.869" y1="246.333" x2="327.68" y2="246.333"/>
<line fill="none" stroke="#394856" stroke-width="2" stroke-miterlimit="10" x1="164.869" y1="258.333" x2="327.68" y2="258.333"/>
<line fill="none" stroke="#394856" stroke-width="2" stroke-miterlimit="10" x1="173.667" y1="270.333" x2="327.68" y2="270.333"/>
<line fill="none" stroke="#394856" stroke-width="2" stroke-miterlimit="10" x1="176.833" y1="282.333" x2="327.68" y2="282.333"/>
<line fill="none" stroke="#394856" stroke-width="2" stroke-miterlimit="10" x1="176.833" y1="294.333" x2="314.667" y2="294.333"/>
<line fill="none" stroke="#394856" stroke-width="2" stroke-miterlimit="10" x1="194.951" y1="306.333" x2="308.667" y2="306.333"/>
<line fill="none" stroke="#394856" stroke-width="2" stroke-miterlimit="10" x1="196.667" y1="318.333" x2="293.667" y2="318.333"/>
</svg>
