<?xml version="1.0" encoding="utf-8"?>
<!-- Generator: Adobe Illustrator 17.1.0, SVG Export Plug-In . SVG Version: 6.00 Build 0)  -->
<!DOCTYPE svg PUBLIC "-//W3C//DTD SVG 1.1//EN" "http://www.w3.org/Graphics/SVG/1.1/DTD/svg11.dtd">
<svg version="1.1" id="Layer_1" xmlns="http://www.w3.org/2000/svg" xmlns:xlink="http://www.w3.org/1999/xlink" x="0px" y="0px"
	 viewBox="0 0 500 500" enable-background="new 0 0 500 500" xml:space="preserve">
<circle fill="none" stroke="#394856" stroke-width="15" stroke-miterlimit="10" cx="250.343" cy="250" r="237"/>
<g>
	<g>
		<rect x="261.905" y="144.183" fill="#394856" width="56.059" height="141.421"/>
		<rect x="289.934" y="125.072" fill="#394856" width="19.111" height="26.755"/>
		<rect x="295.944" y="98.89" fill="#394856" width="6.912" height="31.597"/>
	</g>
	<g>
		<rect x="219.286" y="165.875" fill="#FFFFFF" width="47.46" height="119.729"/>
		<rect x="243.016" y="149.695" fill="#FFFFFF" width="16.18" height="22.651"/>
		<rect x="248.104" y="127.529" fill="#FFFFFF" width="5.852" height="26.75"/>
	</g>
	<g>
		<rect x="216.198" y="165.875" fill="#394856" width="47.46" height="119.729"/>
		<rect x="239.928" y="149.695" fill="#394856" width="16.18" height="22.651"/>
		<rect x="245.016" y="127.529" fill="#394856" width="5.852" height="26.75"/>
	</g>
	<rect x="181.555" y="191.698" fill="#FFFFFF" width="40.195" height="93.905"/>
	<rect x="201.653" y="179.008" fill="#FFFFFF" width="13.703" height="17.766"/>
	<rect x="205.962" y="161.623" fill="#FFFFFF" width="4.956" height="20.981"/>
	<g>
		<rect x="181.555" y="191.698" fill="#394856" width="37.224" height="93.905"/>
		<rect x="200.167" y="179.008" fill="#394856" width="12.69" height="17.766"/>
		<rect x="204.158" y="161.623" fill="#394856" width="4.59" height="20.981"/>
	</g>
	<circle fill="#FFFFFF" cx="250.343" cy="301.808" r="77.02"/>
	<g>
		<path fill="#394856" d="M244.647,233.601c4.017,0,8.034,0,12.05,0c0.662,0.156,1.317,0.387,1.988,0.458
			c28.07,2.981,52.084,24.02,58.655,51.478c0.802,3.351,1.291,6.777,1.925,10.169c0,3.862,0,7.725,0,11.587
			c-0.161,0.667-0.37,1.327-0.477,2.003c-4.586,28.976-20.961,48.047-48.603,57.434c-4.626,1.571-9.602,2.114-14.416,3.132
			c-4.017,0-8.034,0-12.05,0c-0.667-0.157-1.326-0.382-2.001-0.46c-28.688-3.315-52.114-24.056-58.799-52.144
			c-0.745-3.13-1.186-6.333-1.768-9.501c0-3.862,0-7.725,0-11.587c0.159-0.668,0.364-1.329,0.471-2.005
			c4.591-28.974,20.974-48.039,48.611-57.43C234.858,235.163,239.833,234.619,244.647,233.601z M292.829,269.766l0.063,0.068
			c-0.109-0.365-0.102-0.911-0.345-1.068c-2.362-1.53-2.132-4.223-3.113-6.376c-1.49-3.269-2.571-7.353-7.157-7.807
			c-0.124,0.835-0.244,1.651-0.342,2.31c1.004,0.79,1.969,1.547,2.931,2.307c0.933,0.737,1.862,1.479,2.917,2.318
			c-0.659,0.352-1.178,0.539-1.588,0.864c-1.899,1.505-4.335,1.448-5.47-0.656c-1.497-2.773-4.03-3.875-6.517-5.265
			c-1.257-0.703-2.275-1.835-3.93-3.213c2.312-0.812,3.862-1.358,5.615-1.974c-0.998-2.418-2.783,0.532-3.719-0.761
			c-0.453-0.641-0.884-1.382-1.506-1.889c-1.781-1.453-3.632-2.822-5.47-4.204c-1.234-0.927-2.393-1.978-3.903-0.203
			c-0.376,0.442-1.552,0.221-2.363,0.273c-2.013,0.128-4.046,0.105-6.037,0.385c-2.722,0.384-5.448,1.301-7.627-1.371
			c-0.271-0.332-1.003-0.524-1.454-0.435c-2.158,0.427-4.298,0.951-6.429,1.499c-0.306,0.079-0.508,0.505-0.801,0.709
			c-0.918,0.637-1.848,1.258-2.791,1.857c-0.712,0.452-2.051,0.83-2.074,1.291c-0.085,1.749-1.3,1.614-2.382,1.919
			c-0.753,0.212-1.996,0.522-2.084,0.971c-0.648,3.325-3.676,4.562-5.651,6.689c-0.522,0.562-1.56,0.646-2.769,1.103
			c0.605-1.303,0.98-2.109,1.089-2.344c-1.256-1.462-2.884-2.535-2.965-3.715c-0.063-0.916,1.846-1.926,2.796-2.97
			c0.632-0.694,1.676-1.611,1.567-2.27c-0.327-1.987,0.743-2.636,2.229-3.126c1.481-0.489,1.968-1.645,1.441-2.905
			c-0.684-1.634-1.855-0.434-2.7-0.049c-27.253,12.427-42.796,40.68-38.375,70.443c5.089,34.265,37.178,59.164,72.839,55.355
			c0.652-0.07,1.409-0.723,1.809-1.313c1.416-2.09-0.528-2.516-1.725-3.475c-2.751-2.203-5.334-4.614-8.042-6.873
			c-1.794-1.496-1.851-5.328,0.267-6.081c3.288-1.169,2.484-3.524,2.486-5.982c-1.047,0-1.959,0.067-2.858-0.013
			c-2.452-0.217-5.163-0.389-6.345-2.875c-1.339-2.816-3.419-4.656-6.181-5.542c-5.117-1.641-9.775-4.062-13.898-7.453
			c-0.8-0.658-1.127-1.96-1.513-3.023c-0.223-0.612,0.019-1.391-0.2-2.006c-1.157-3.256-2.39-6.485-3.622-9.714
			c-0.044-0.116-0.356-0.129-1.048-0.355c0.751,2.71,1.407,5.078,2.064,7.447c-1.073-0.756-2.087-1.7-2.542-2.862
			c-0.954-2.437-1.643-4.98-2.389-7.494c-1.762-5.938-0.957-11.659,2.058-16.94c1.323-2.317,2.132-4.404,2.125-7.179
			c-0.008-3.01,1.085-6.029,1.753-9.032c0.964-4.331-0.084-6.343-4.144-7.848c-0.868-0.321-1.779-0.593-2.553-1.075
			c-0.535-0.333-0.869-0.989-1.294-1.5c0.095-0.081,0.189-0.161,0.284-0.242c0.749,0.294,1.497,0.589,2.35,0.924
			c0.234-0.489,0.412-0.814,0.548-1.154c0.807-2.025,1.668-3.949,4.48-3.134c0.241,0.07,0.785-0.094,0.814-0.23
			c0.595-2.75,3.062-1.798,4.698-2.278c2.301-0.674,3.398,0.262,3.797,2.666c0.161,0.97,0.059,2.252,0.638,2.84
			c2.698,2.738,5.592,5.282,8.416,7.896c0.244-0.221,0.487-0.442,0.731-0.663c-1.094-1.698-2.188-3.396-3.535-5.488
			c1.107-0.319,2.285-1.07,2.842-0.748c2.812,1.626,4.434,4.146,4.173,7.729c0.242-0.024,0.484-0.048,0.726-0.072
			c0.586-1.078,1.171-2.157,1.814-3.34c1.589,1.072,0.194,4.996,3.807,3.519c-0.777-1.037-1.49-1.988-2.203-2.938
			c0.047-0.268,0.095-0.536,0.142-0.805c0.986-0.083,2.135-0.532,2.927-0.179c2.392,1.064,5.232,1.596,6.377,4.523
			c0.189,0.483,0.896,0.81,1.422,1.107c2.484,1.4,2.678,2.054,1.372,4.911c-0.952,2.084-2.369,0.928-3.683,0.537
			c-1.151-0.343-2.309-0.666-3.514-1.013c2.731-3.084,2.303-4.985-0.648-5.587c-0.807,1.088-1.372,2.017-2.098,2.795
			c-1.569,1.68-3.474,3.105-4.78,4.959c-2.009,2.852-1.141,4.879,2.118,5.82c1.305,0.377,2.344,0.773,2.545,2.499
			c0.123,1.052,1.124,2.001,1.731,2.997c0.811-1.603,1.248-3.014,1.317-4.443c0.069-1.441-0.293-2.897-0.35-4.352
			c-0.149-3.809,0.319-4.12,3.82-2.427c1.339,0.647,2.533,1.588,3.853,2.281c1.194,0.627,2.728,0.82,3.663,1.689
			c3.289,3.056,6.388,6.316,9.541,9.516c0.188,0.191,0.213,0.543,0.328,0.86c-3.351,1.239-4.362-1.292-5.686-3.393
			c-2.265,1.439-5.532,0.972-6.94,3.842c0.616-0.137,1.092-0.65,1.638-0.742c0.63-0.106,1.362,0.057,1.979,0.29
			c0.731,0.275,1.424,0.698,2.063,1.155c0.495,0.354,0.882,0.861,1.318,1.299c-1.539,0.939-3.068,1.895-4.621,2.811
			c-0.875,0.516-1.894,0.844-2.652,1.488c-0.61,0.517-0.961,1.362-1.364,2.095c-0.973,1.769-2.31,3.468-2.738,5.367
			c-0.375,1.661-0.991,2.776-2.288,3.743c-3.661,2.73-3.757,3.158-2.707,7.523c0.144,0.601-0.219,1.324-0.348,1.991
			c-0.537-0.324-1.119-0.593-1.594-0.991c-0.343-0.286-0.545-0.742-0.807-1.124c-1.629-2.375-3.616-3.034-6.342-2.247
			c-0.684,0.198-1.56,0.257-2.199,0.004c-4.836-1.908-7.839,2.328-7.322,6.395c0.26,2.046,1.775,2.785,3.236,3.578
			c1.338,0.726,2.35,0.272,3.396-0.928c0.51-0.586,1.938-0.642,2.855-0.459c0.327,0.065,0.558,1.554,0.5,2.369
			c-0.067,0.926-0.507,1.824-0.845,2.929c1.315,0.132,2.308,0.161,3.273,0.341c2.858,0.532,3.296,1.331,2.884,4.212
			c-0.107,0.744,0.273,1.828,0.818,2.347c1.817,1.73,5.013,1.724,6.859,0.141c1.722-1.477,3.481-2.571,5.825-1.286
			c0.357,0.196,0.905,0.143,1.344,0.075c4.345-0.676,8.62-1.922,13.013,0.243c1.552,0.765,3.634,0.675,5.46,0.604
			c1.794-0.069,3.052,0.399,4.159,1.835c0.524,0.679,1.631,1.435,2.36,1.334c2.584-0.356,5.181-0.879,7.65-1.706
			c1.763-0.591,2.948-0.413,3.883,1.017c-1.504,2.691-2.957,5.29-4.409,7.889c11.455-6.826,24.841-31.494,23.267-42.041
			c-0.575,0.784-1.031,1.352-1.429,1.958c-1.86,2.832-3.547,3.18-5.386,0.389c-1.822-2.765-3.287-5.951-4.091-9.157
			c-1.313-5.234,0.264-10.962-2.461-16.039c-0.172-0.32-0.022-0.812-0.022-1.499c-1.896,1.607-3.064,0.387-4.116-0.683
			c-0.664-0.676-1.227-1.591-1.473-2.497c-0.214-0.788-0.174-1.85,0.199-2.553c1.17-2.201,1.029-2.906-1.395-3.208
			c-1.946-0.242-2.343-1.168-2.349-2.923C293.814,271.988,293.18,270.877,292.829,269.766z M304.302,280.435
			c0-2.585,0-4.672,0-6.835c0.985-0.106,1.638-0.176,2.866-0.308c-0.694-1.463-1.259-2.633-1.804-3.813
			c-0.277-0.601-0.867-1.326-0.718-1.811c1.098-3.57,0.339-5.843-2.818-7.85c-0.201,2.992-0.185,2.976,1.621,4.858
			c1.016,1.059,0.861,1.917-0.603,2.355c-0.724,0.217-1.477,0.335-2.165,0.487c0.755,0.801,1.338,1.419,1.922,2.037
			c-0.827,0.394-1.654,0.787-2.619,1.247C300.818,273.984,300.847,277.591,304.302,280.435z"/>
		<path fill="#394856" d="M251.223,265.249c-0.346,0.926-0.793,2.118-1.507,4.028c-1.145-1.44-2.937-2.794-2.719-3.608
			c0.436-1.623-0.521-4.318,2.392-4.766c0.076-0.012,0.174-0.077,0.221-0.049c2.53,1.5,4.258-0.912,6.375-1.222
			c1.675-0.246,3.664,0.17,5.219,0.911c2.869,1.368,5.609,3.064,8.234,4.867c1.718,1.181,1.3,2.661,0.547,4.609
			c-0.913,2.362-0.915,5.168-0.833,7.767c0.023,0.744,1.703,1.435,2.61,2.141c-4.08,2.083-5.517,2.61-8.833-1.568
			c-0.984-1.24-1.079-2.647-1.799-3.689c-1.426-2.063-3.429-3.744-5.28-5.491C254.454,267.86,252.924,266.683,251.223,265.249z"/>
		<path fill="#394856" d="M292.829,269.766c0,0.987,0,1.974,0,3.303c-1.646-0.638-3.015-1.169-4.828-1.872
			c0.888,1.183,1.482,1.973,2.075,2.764c-0.187,0.21-0.374,0.419-0.561,0.628c-0.926-0.733-2.13-1.294-2.717-2.239
			c-0.995-1.601-1.629-3.432-2.344-5.195c-0.13-0.32-0.033-0.862,0.175-1.14c0.133-0.178,0.732-0.195,1.003-0.055
			c2.435,1.262,4.843,2.574,7.26,3.873C292.892,269.834,292.829,269.766,292.829,269.766z"/>
		<path fill="#394856" d="M278.483,268.357c-1.384,1.67-2.225,3.588-3.574,4.063c-1.415,0.498-2.577-1.553-2.138-2.758
			c0.443-1.214,1.955-2.139,3.181-2.894C276.251,266.585,277.266,267.566,278.483,268.357z"/>
		<path d="M245.334,327.869c3.5,0.801,7,1.602,10.78,2.467c-1.141,1.99-2.447,1.922-3.752,1.355
			c-2.355-1.024-4.659-2.168-6.984-3.262C245.364,328.243,245.349,328.056,245.334,327.869z"/>
		<path d="M256.429,331.758c2.227-1.653,3.203-1.492,5.534,1.511c-1.873-0.204-3.746-0.408-5.62-0.612
			C256.372,332.357,256.4,332.058,256.429,331.758z"/>
	</g>
	
		<ellipse fill="none" stroke="#394856" stroke-width="6" stroke-miterlimit="10" cx="250.182" cy="300.201" rx="70.515" ry="69.07"/>
</g>
</svg>
