<?xml version="1.0" encoding="utf-8"?>
<!-- Generator: Adobe Illustrator 17.1.0, SVG Export Plug-In . SVG Version: 6.00 Build 0)  -->
<!DOCTYPE svg PUBLIC "-//W3C//DTD SVG 1.1//EN" "http://www.w3.org/Graphics/SVG/1.1/DTD/svg11.dtd">
<svg version="1.1" id="Layer_1" xmlns="http://www.w3.org/2000/svg" xmlns:xlink="http://www.w3.org/1999/xlink" x="0px" y="0px"
	 viewBox="0 0 118.621 124.359" enable-background="new 0 0 118.621 124.359" xml:space="preserve">
<g>
	<path fill="#FFFFFF" d="M29.633,82.747c0-15.605,0.107-30.92-0.086-46.232c-0.041-3.269,0.998-5.11,3.736-6.792
		c6.523-4.006,12.718-8.55,19.275-12.495c3.122-1.878,4.422-4.011,4.04-7.611c-0.312-2.943-0.063-5.946-0.063-9.286
		C58.421,0.225,60.001,0.136,62.413,0c0,2.204,0.299,4.169-0.053,6.009c-1.334,6.97,1.631,11.088,7.89,13.947
		c4.663,2.129,8.754,5.479,13.333,7.831c3.997,2.054,5.594,4.64,5.464,9.335c-0.37,13.319-0.13,26.654-0.13,39.983
		c0,1.816,0,3.632,0,5.676c7.491,2.098,14.694,4.075,21.873,6.139c6.258,1.8,7.763,3.826,7.802,10.322
		c0.031,5.331,0.051,10.664-0.006,15.995c-0.073,6.83-2.294,9.032-9.541,9.05c-29.822,0.072-59.643,0.063-89.465,0.073
		c-3.832,0.001-7.665-0.158-11.494-0.07c-4.96,0.113-7.674-2.601-7.914-7.132c-0.353-6.639-0.068-13.317,0.068-19.975
		c0.085-4.169,2.83-6.076,6.472-7.201C14.301,87.635,21.865,85.204,29.633,82.747z M62.605,23.948c0,31.811,0,62.842,0,93.92
		c6.948,0,13.501,0,20.388,0c0-26.821,0.028-53.267-0.092-79.712c-0.005-1.18-1.084-2.802-2.136-3.458
		C75.007,31.109,69.102,27.758,62.605,23.948z M55.718,51.174c-6.188,4.098-12.053,8.4-18.324,11.994
		c-4.487,2.571-5.851,5.757-4.197,11.028c6.305-4.169,12.327-8.524,18.718-12.246C56.269,59.414,57.297,56.232,55.718,51.174z
		 M33.189,103.84c6.208-4.122,12.087-8.376,18.314-12.039c4.342-2.554,6.041-5.603,4.144-10.987
		c-6.208,4.12-12.041,8.439-18.307,11.998C32.795,95.394,31.652,98.625,33.189,103.84z M33.189,44.832
		c6.363-4.238,12.348-8.633,18.735-12.335c4.391-2.545,5.264-5.707,3.829-10.775c-6.325,4.196-12.157,8.511-18.419,12.069
		C32.792,36.372,31.662,39.602,33.189,44.832z M33.133,89.086c6.777-4.508,12.966-8.994,19.522-12.857
		c4.43-2.61,4.079-5.9,3.113-10.311c-6.394,4.246-12.147,8.511-18.328,12.023C32.92,80.509,31.589,83.728,33.133,89.086z
		 M55.748,36.523c-6.471,4.297-12.228,8.57-18.417,12.081c-4.566,2.59-5.614,5.837-4.181,11.031
		c6.499-4.315,12.532-8.713,18.953-12.444C56.375,44.707,57.08,41.566,55.748,36.523z M92.891,91.404
		c-0.484,0.305-0.969,0.61-1.453,0.915c0.737,2.482,0.801,6.506,2.329,7.171c5.843,2.544,12.157,4.008,18.295,5.875
		c0.456-0.31,0.911-0.621,1.367-0.931c-1.022-2.538-1.381-6.506-3.192-7.347C104.757,94.541,98.714,93.209,92.891,91.404z
		 M113.319,119.113c-0.818-3.552-0.686-7.772-2.127-8.402c-5.932-2.597-12.341-4.103-18.575-6.011
		c-0.473,0.415-0.947,0.831-1.42,1.246c1.007,2.419,1.396,6.224,3.136,7.001C99.993,115.474,106.147,116.893,113.319,119.113z
		 M21.136,110.318c6.158-1.013,6.235-1.146,4.906-7.867C20.744,102.59,19.908,105.635,21.136,110.318z M26.279,90.547
		c-6.307,1.535-6.462,1.812-4.775,7.963C27.355,98.626,27.105,94.913,26.279,90.547z M12.294,101.353
		c6.048-0.832,6.218-1.117,4.764-7.722C11.52,93.801,11.056,97.014,12.294,101.353z M12.342,113.118
		c6.696,0.261,5.463-3.888,5.106-7.64C11.962,105.509,10.977,108.404,12.342,113.118z M8.496,108.41
		c-5.585,0.245-6.51,3.131-5.034,7.675C9.517,116.493,9.243,112.795,8.496,108.41z M8.453,96.599
		c-6.048,0.237-6.177,3.542-5.032,7.772C9.585,104.5,9.317,100.839,8.453,96.599z"/>
</g>
</svg>
