<?xml version="1.0" encoding="UTF-8" standalone="no"?>
<svg width="16px" height="16px" viewBox="0 0 16 16" version="1.1" xmlns="http://www.w3.org/2000/svg" xmlns:xlink="http://www.w3.org/1999/xlink" xmlns:sketch="http://www.bohemiancoding.com/sketch/ns">
    <!-- Generator: Sketch 3.4.4 (17249) - http://www.bohemiancoding.com/sketch -->
    <title>? copy</title>
    <desc>Created with Sketch.</desc>
    <defs></defs>
    <g id="2" stroke="none" stroke-width="1" fill="none" fill-rule="evenodd" sketch:type="MSPage">
        <g id="horizontal-nav" sketch:type="MSArtboardGroup" transform="translate(-843.000000, -22.000000)" fill="#9DCEE6">
            <g id="1024-" sketch:type="MSLayerGroup">
                <g id="icons" transform="translate(843.000000, 21.000000)" sketch:type="MSShapeGroup">
                    <path d="M7.9984,1.33333333 C3.58096,1.33333333 0,4.78235499 0,9.03703704 C0,13.291565 3.58096,16.7407407 7.9984,16.7407407 C12.41584,16.7407407 15.9968,13.291565 15.9968,9.03703704 C15.9968,4.78235499 12.41584,1.33333333 7.9984,1.33333333 L7.9984,1.33333333 Z M8.84816,12.5782134 C8.84816,13.20203 8.34912,13.6825291 7.67456,13.6825291 C6.99984,13.6825291 6.5008,13.20203 6.5008,12.5782134 L6.5008,12.5521697 C6.5008,11.9283531 6.99984,11.4475458 7.67456,11.4475458 C8.34912,11.4475458 8.84816,11.9283531 8.84816,12.5521697 L8.84816,12.5782134 L8.84816,12.5782134 Z M11.2096,7.10718144 C11.2096,8.75749076 10.02224,9.43354893 8.55184,9.71941351 L8.51136,10.1909745 C8.45712,10.5286183 8.17376,10.8275818 7.78256,10.8275818 L7.33056,10.8275818 C6.9392,10.8275818 6.65584,10.5418713 6.60208,10.1909745 L6.60208,9.06955317 C6.53456,8.64067925 6.99984,8.34156165 7.432,8.2896283 C8.6056,8.14692716 9.14528,7.79603032 9.14528,7.15926889 L9.14528,7.13322516 C9.14528,6.54855119 8.68656,6.21059916 7.90384,6.21059916 C7.32384,6.21059916 6.82464,6.37965223 6.33904,6.73039497 C6.17696,6.84736058 5.96112,6.93843658 5.73168,6.93843658 C5.21904,6.93843658 4.7872,6.52235336 4.7872,6.02890949 C4.7872,5.78172523 4.8952,5.52190438 5.13824,5.32696169 C5.85328,4.75538663 6.75712,4.39123677 7.94432,4.39123677 C9.88736,4.39123677 11.2096,5.35285131 11.2096,7.08113771 L11.2096,7.10718144 L11.2096,7.10718144 Z" id="?-copy"></path>
                </g>
            </g>
        </g>
    </g>
</svg>