<?xml version="1.0" encoding="utf-8"?>
<!-- Generator: Adobe Illustrator 17.0.0, SVG Export Plug-In . SVG Version: 6.00 Build 0)  -->
<!DOCTYPE svg PUBLIC "-//W3C//DTD SVG 1.1//EN" "http://www.w3.org/Graphics/SVG/1.1/DTD/svg11.dtd">
<svg version="1.1" xmlns="http://www.w3.org/2000/svg" xmlns:xlink="http://www.w3.org/1999/xlink" x="0px" y="0px"
	 width="1791.184px" height="1791.184px" viewBox="0 0 1791.184 1791.184" enable-background="new 0 0 1791.184 1791.184"
	 xml:space="preserve">
<g id="_x30_1" display="none">
	<path display="inline" d="M900.884,1792.002C900.882,1792.002,900.886,1792.002,900.884,1792.002
		c-27.83,0-51.61-20.059-56.297-47.493c-56.881-332.801-192.93-503.136-312.961-653.423
		C418.364,949.28,311.384,815.339,311.384,586.484c0-325.052,264.448-589.5,589.5-589.5s589.5,264.448,589.5,589.5
		c0,228.857-106.978,362.796-220.238,504.606c-120.033,150.283-256.078,320.618-312.965,653.419
		C952.492,1771.942,928.712,1792.002,900.884,1792.002z M900.884,111.212c-262.066,0-475.272,213.206-475.272,475.272
		c0,188.836,86.171,296.724,195.266,433.317c93.836,117.487,205.29,257.042,280.007,479.116
		c74.717-222.074,186.169-361.629,280.003-479.116c109.097-136.59,195.266-244.478,195.266-433.317
		C1376.156,324.419,1162.95,111.212,900.884,111.212z M900.884,821.602c-136.772,0-248.042-111.27-248.042-248.038
		s111.27-248.038,248.042-248.038c136.77,0,248.042,111.27,248.042,248.038S1037.654,821.602,900.884,821.602z M900.884,439.755
		c-73.785,0-133.814,60.026-133.814,133.81s60.028,133.81,133.814,133.81c73.787,0,133.814-60.026,133.814-133.81
		S974.671,439.755,900.884,439.755z"/>
</g>
<g id="_x30_2" display="none">
	<path display="inline" fill="#231F20" d="M668.497,1311.594c-7.244,0-14.534-1.338-21.686-4.153
		c-261.296-103.033-430.126-351.156-430.126-632.062c0-374.503,304.669-679.195,679.195-679.195s679.195,304.692,679.195,679.195
		c0,273.524-162.785,519.178-414.761,625.81c-30.084,12.689-64.69-1.361-77.425-31.376c-12.689-30.038,1.338-64.713,31.376-77.425
		c208.188-88.083,342.689-291.034,342.689-517.01c0-309.375-251.699-561.074-561.074-561.074S334.805,366.004,334.805,675.379
		c0,232.089,139.484,437.047,355.378,522.201c30.315,11.95,45.218,46.256,33.268,76.594
		C714.268,1297.406,692.028,1311.594,668.497,1311.594z M954.94,1732.562V887.213L711.685,689.36
		c-25.378-20.579-62.521-16.726-83.1,8.559c-20.579,25.308-16.749,62.498,8.536,83.077l199.698,162.416v789.149
		c0,32.622,26.439,59.061,59.06,59.061S954.94,1765.183,954.94,1732.562z M931.316,962.561l236.242-177.181
		c26.116-19.564,31.376-56.592,11.812-82.685c-19.564-26.116-56.615-31.399-82.685-11.812L860.443,868.064
		c-26.116,19.564-31.376,56.592-11.812,82.685c11.581,15.48,29.346,23.624,47.294,23.624
		C908.245,974.373,920.703,970.52,931.316,962.561z"/>
</g>
<g id="_x30_3" display="none">
	<path display="inline" d="M1007.657,1293.345v388.021c0,61.615-49.937,111.552-111.552,111.552s-111.552-49.937-111.552-111.552
		v-388.021c-307.009-53.012-540.768-319.953-540.768-642.11c0-360.266,292.054-652.32,652.32-652.32s652.32,292.054,652.32,652.32
		C1548.424,973.391,1314.665,1240.333,1007.657,1293.345z"/>
</g>
<g id="_x30_4" display="none">
	<path display="inline" d="M728.312,395.721h6.237c4.447,0,8.882-0.624,13.155-1.871c94.571-27.35,195.506-27.397,290.031,0
		c4.285,1.247,8.709,1.871,13.167,1.871h6.26c16.678,0,32.132-8.778,40.656-23.123c8.535-14.345,8.882-32.109,0.912-46.754
		L934.26,23.026c-8.27-15.246-24.232-24.74-41.568-24.74c-17.348,0-33.299,9.494-41.58,24.74L686.732,325.844
		c-7.958,14.668-7.6,32.432,0.924,46.754C696.18,386.943,711.634,395.721,728.312,395.721z M892.703,144.74l75.225,138.484
		c-49.873-6.121-100.508-6.121-150.404,0L892.703,144.74z M1764.691,853.331l-302.817-164.356
		c-14.657-7.969-32.421-7.646-46.766,0.924c-14.333,8.524-23.111,23.978-23.111,40.656v6.306c0,4.458,0.624,8.87,1.859,13.144
		c13.71,47.378,20.663,96.142,20.663,144.952c0,48.787-6.953,97.574-20.663,144.998c-1.236,4.274-1.859,8.709-1.859,13.144v6.283
		c0,16.678,8.79,32.132,23.123,40.656c7.438,4.435,15.812,6.653,24.186,6.653c7.762,0,15.535-1.917,22.58-5.729l302.817-164.472
		c15.246-8.293,24.728-24.232,24.728-41.58S1779.937,861.601,1764.691,853.331z M1504.493,970.147
		c3.084-24.971,4.643-50.081,4.643-75.19c0-25.133-1.559-50.242-4.643-75.19l138.484,75.167L1504.493,970.147z M1143.406,435.661
		c2.922,2.911,6.214,5.452,9.783,7.531c79.279,45.853,145.449,112.035,191.348,191.337c2.068,3.581,4.597,6.861,7.519,9.794
		l12.081,12.058c8.986,8.963,21.056,13.814,33.426,13.814c3.985,0,7.993-0.508,11.943-1.525
		c16.228-4.25,29.002-16.747,33.576-32.894l91.891-324.462c4.666-16.493,0.058-34.234-12.07-46.339
		c-12.127-12.151-29.81-16.771-46.35-12.058l-324.416,91.938c-16.135,4.574-28.644,17.348-32.871,33.564
		c-4.239,16.239,0.439,33.495,12.289,45.368L1143.406,435.661z M1420.848,367.031l-42.261,149.249
		c-31.139-39.871-67.071-75.814-106.918-106.976L1420.848,367.031z M1058.78,1394.193h-7.877c-4.458,0-8.882,0.624-13.167,1.871
		c-94.617,27.396-195.345,27.396-290.031,0c-4.273-1.247-8.709-1.871-13.155-1.871h-4.597c-16.678,0-32.132,8.778-40.656,23.123
		c-8.535,14.345-8.882,32.109-0.912,46.754l164.472,302.84c8.27,15.246,24.232,24.74,41.58,24.74
		c17.336,0,33.299-9.494,41.568-24.74l164.356-302.84c7.958-14.668,7.6-32.432-0.924-46.754
		C1090.9,1402.971,1075.458,1394.193,1058.78,1394.193z M894.412,1645.197l-75.098-138.276
		c49.896,6.006,100.508,5.867,150.381-0.439L894.412,1645.197z M347.406,1106.552c8.512,0,17.036-2.287,24.59-6.791
		c14.334-8.524,23.123-24.255,23.123-40.933c0-4.62-0.681-9.217-2.01-13.652c-14.68-48.741-22.13-99.284-22.13-150.219
		c0-50.889,7.45-101.432,22.13-150.219c1.328-4.412,2.01-9.563,2.01-14.183c0-16.678-8.79-32.132-23.123-40.656
		c-14.333-8.57-32.109-8.847-46.766-0.924L22.413,853.423c-15.234,8.293-24.728,24.232-24.728,41.58
		c0,17.348,9.494,33.31,24.74,41.58l302.817,164.379C332.16,1104.728,339.783,1106.552,347.406,1106.552z M280.855,969.2
		l-136.717-74.197l136.717-74.243c-2.991,24.578-4.493,49.365-4.493,74.197C276.362,919.812,277.863,944.622,280.855,969.2z
		 M645.834,1356.424c-2.991-2.98-6.352-5.544-10.025-7.623c-82.12-46.731-150.207-114.807-196.881-196.927
		c-2.102-3.719-4.701-7.115-7.727-10.118l-8.247-8.224c-11.885-11.85-29.175-16.47-45.357-12.289
		c-16.228,4.25-28.99,16.748-33.564,32.894l-91.892,324.485c-4.666,16.493-0.058,34.234,12.07,46.339
		c8.997,9.009,21.079,13.86,33.449,13.86c4.308,0,8.651-0.578,12.901-1.802l324.416-91.961c16.158-4.574,28.667-17.371,32.894-33.61
		c4.216-16.262-0.497-33.541-12.382-45.391L645.834,1356.424z M366.267,1422.883l41.822-147.701
		c30.965,39.408,66.609,74.936,106.121,105.775L366.267,1422.883z M1443.636,1153.538c-4.585-16.147-17.394-28.667-33.645-32.871
		c-16.251-4.297-33.53,0.508-45.391,12.381l-12.613,12.682c-2.876,2.888-5.371,6.145-7.427,9.679
		c-45.911,79.279-112.081,145.437-191.371,191.36c-3.546,2.056-6.814,4.551-9.714,7.438l-11.296,11.273
		c-11.885,11.873-16.597,29.152-12.37,45.391c4.216,16.262,16.736,29.06,32.894,33.634l324.485,91.869
		c4.25,1.201,8.582,1.779,12.89,1.779c12.37,0,24.463-4.874,33.46-13.86c12.116-12.127,16.736-29.868,12.058-46.362
		L1443.636,1153.538z M1272.397,1380.056c39.79-31.231,75.664-67.198,106.745-107.114l42.319,149.295L1272.397,1380.056z
		 M343.456,636.399c4.574,16.124,17.36,28.644,33.599,32.871c3.95,1.016,7.946,1.525,11.92,1.525
		c12.382,0,24.463-4.874,33.449-13.86l8.824-8.824c3.003-3.003,5.579-6.376,7.681-10.072
		c46.662-82.097,114.749-150.173,196.881-196.904c3.684-2.102,7.069-4.666,10.06-7.669l9.055-9.055
		c11.873-11.873,16.563-29.129,12.335-45.368s-16.747-29.037-32.894-33.587l-324.462-91.892
		c-16.459-4.735-34.211-0.069-46.35,12.058c-12.116,12.127-16.736,29.868-12.058,46.362L343.456,636.399z M513.483,409.558
		c-39.466,30.885-75.052,66.459-105.959,105.89l-41.892-147.77L513.483,409.558z M892.737,422.448
		c-260.544,0-472.509,211.965-472.509,472.509s211.965,472.532,472.509,472.532c260.556,0,472.532-211.988,472.532-472.532
		S1153.293,422.448,892.737,422.448z M892.737,1272.872c-208.373,0-377.892-169.531-377.892-377.915
		c0-208.362,169.519-377.892,377.892-377.892c208.385,0,377.915,169.53,377.915,377.892
		C1270.653,1103.341,1101.122,1272.872,892.737,1272.872z"/>
</g>
<g id="_x30_5" display="none">
	<path id="user-3-icon" display="inline" d="M1790.354,1788.984H-0.149c0-222.137-6.321-312.041,33.542-398.393
		c40.063-86.774,118.807-141.05,247.818-170.805c324.849-74.827,323.928-100.386,285.834-170.535
		c-179.409-330.397-212.02-623.621-91.826-825.659C559.527,81.877,712.572,0.602,895.107,0.602
		c181.161,0,333.253,80.113,417.28,219.794c147.293,244.853,45.041,575.733-88.817,828.103
		c-37.55,70.766-38.398,96.582,285.429,171.287c129.007,29.755,207.751,84.031,247.81,170.805
		C1796.54,1476.643,1790.354,1564.056,1790.354,1788.984z M173.916,1614.579h1442.372c0.065-156.844-10.352-193.451-146.484-224.854
		c-185.621-42.789-362.178-81.705-419.958-208.268c-28.92-63.345-22.312-135.576,19.656-214.681
		c100.604-189.665,203.512-473.511,93.439-656.476c-52.48-87.244-147.602-135.289-267.83-135.289
		c-121.268,0-217.155,48.924-270,137.754c-86.231,144.941-51.528,383.046,95.204,653.268
		c42.776,78.774,49.928,150.979,21.251,214.585c-57.828,128.255-235.228,166.296-421.153,209.111
		C184.268,1421.124,173.851,1457.731,173.916,1614.579z"/>
</g>
<g id="_x30_6" display="none">
	<path display="inline" d="M1074.811,1787.76H715.231c-41.087,0-74.507-33.421-74.507-74.507v-188.465
		c0-5.828-0.258-10.782-0.661-14.951c-3.25,2.667-6.937,6.007-11.062,10.132l-75.415,75.404
		c-33.286,33.286-55.914,55.903-57.606,57.606c-28.601,28.601-77.455,28.377-105.586,0.224
		c-2.959-2.959-59.837-59.848-127.138-127.115l-127.115-127.16c-28.882-29.162-28.882-76.211-0.247-105.126l133.503-133.481
		c4.102-4.124,7.419-7.8,10.098-11.051c-4.192-0.381-9.157-0.65-14.984-0.65H76.091c-41.087,0-74.507-33.421-74.507-74.507V714.556
		c0-41.087,33.421-74.507,74.507-74.507h188.465c5.828,0,10.782-0.269,14.962-0.65c-2.679-3.25-5.996-6.949-10.12-11.051
		L136.141,495.069c-28.882-29.162-28.882-76.211-0.247-105.126L276.75,249.087c60.733-60.722,110.069-110.035,113.24-113.24
		c28.938-28.96,77.645-28.557,105.776-0.403c2.992,3.004,62.616,62.627,133.257,133.234c4.113,4.124,7.8,7.442,11.039,10.132
		c0.403-4.192,0.661-9.145,0.661-14.951V75.416c0-41.087,33.421-74.507,74.507-74.507h359.581c41.087,0,74.507,33.421,74.507,74.507
		v188.442c0,5.805,0.258,10.759,0.661,14.951c3.239-2.69,6.926-6.007,11.039-10.132c70.652-70.629,130.264-130.253,132.999-133.01
		c28.601-28.601,77.477-28.377,105.608-0.224c3.575,3.609,52.91,52.922,113.644,113.644l140.609,140.609
		c28.882,29.162,28.882,76.211,0.247,105.126l-133.526,133.503c-4.113,4.124-7.442,7.823-10.12,11.051
		c4.203,0.403,9.168,0.672,15.007,0.672h188.442c41.087,0,74.507,33.421,74.507,74.507v359.558
		c0,41.087-33.421,74.507-74.507,74.507h-188.42c-5.828,0-10.782,0.269-14.962,0.65c2.667,3.25,5.996,6.926,10.098,11.051
		l133.234,133.234c28.882,29.162,28.882,76.211,0.247,105.126l-179.734,179.745c-41.714,41.692-71.885,71.862-74.339,74.35
		c-28.938,28.96-77.645,28.557-105.776,0.404c-2.992-3.004-62.616-62.627-133.257-133.234c-4.113-4.124-7.8-7.442-11.039-10.109
		c-0.403,4.169-0.661,9.123-0.661,14.951v188.465C1149.318,1754.34,1115.898,1787.76,1074.811,1787.76z M778.441,1650.043h233.16
		v-125.255c0-120.503,66.684-163.248,123.798-163.248c41.109,0,82.498,20.51,122.991,60.991
		c33.656,33.667,64.824,64.824,88.573,88.561c9.044-9.056,19.154-19.165,30.047-30.058l134.803-134.803l-88.539-88.539
		c-74.698-74.687-64.958-136.26-52.507-166.319c12.44-30.036,49.1-80.47,154.742-80.47h125.21V777.766h-125.232
		c-105.653,0-142.312-50.434-154.764-80.492c-12.452-30.058-22.191-91.632,52.507-166.319l88.584-88.584l-95.902-95.891
		c-25.945-25.934-49.828-49.806-68.971-68.948c-23.715,23.715-54.883,54.894-88.55,88.561
		c-40.504,40.481-81.882,61.013-123.002,61.013c-40.84,0-76.883-20.958-98.883-57.472c-16.52-27.413-24.903-63.008-24.903-105.776
		V138.626h-233.16v125.232c0,120.48-66.673,163.226-123.775,163.248c0,0-0.011,0-0.022,0c-41.109,0-82.487-20.532-122.991-61.013
		c-33.656-33.667-64.824-64.824-88.573-88.561c-19.109,19.098-43.003,42.992-68.971,68.948l-95.902,95.914l88.561,88.561
		c74.709,74.687,64.981,136.26,52.529,166.319c-12.451,30.058-49.1,80.492-154.742,80.492H139.301v233.138h125.21
		c105.642,0,142.301,50.411,154.753,80.47c12.451,30.058,22.191,91.61-52.485,166.319l-88.573,88.562l82.431,82.442
		c31.134,31.112,60.05,60.027,82.431,82.42c4.169-4.169,8.551-8.54,13.146-13.135l75.415-75.404
		c40.504-40.504,81.893-61.036,123.024-61.036c57.102,0,123.786,42.745,123.786,163.248V1650.043z M907.372,1234.358
		c-190.661,0-345.773-155.111-345.773-345.75c0-190.661,155.111-345.773,345.773-345.773s345.773,155.111,345.773,345.773
		C1253.144,1079.247,1098.033,1234.358,907.372,1234.358z M907.372,680.552c-114.72,0-208.055,93.336-208.055,208.055
		s93.336,208.033,208.055,208.033s208.055-93.313,208.055-208.033S1022.091,680.552,907.372,680.552z"/>
</g>
<g id="_x30_7" display="none">
	<path display="inline" d="M1892.484,901.309c0,72.076-58.436,130.529-130.536,130.529H348.901l537.778,537.787
		c50.954,50.968,50.954,133.62,0,184.597c-50.961,50.946-133.627,50.946-184.558-0.016L-46.22,1005.866
		c-0.689-0.689-1.269-1.418-1.928-2.13c-30.296-23.896-49.808-60.861-49.808-102.435c0-42.898,20.799-80.869,52.758-104.633
		c3.262-4.207,6.756-8.32,10.621-12.185L713.764,36.126c50.968-50.97,133.604-50.97,184.588,0
		c50.954,50.97,50.954,133.628,0,184.597L348.304,770.78h1413.644C1834.048,770.78,1892.484,829.216,1892.484,901.309z"/>
</g>
<g id="_x30_8" display="none">
	<path display="inline" d="M1740.366,1523.805l-480.365-480.292c65.678-104.93,103.836-229.307,103.836-362.123
		c0-377.747-306.178-684.022-683.853-684.022c-377.625,0-683.9,306.275-683.9,684.022c0,377.6,306.275,683.728,683.9,683.728
		c133.549,0,258.459-38.472,363.852-104.833l480.048,480.051c33.094,32.972,76.241,50.348,119.266,50.348c0.194,0,0.339,0,0.533,0
		c37.403,0,75.583-13.897,104.202-42.367c29.03-29.055,42.78-67.407,42.658-105.199
		C1790.544,1600.094,1773.363,1556.852,1740.366,1523.805z M1061.332,681.39c-0.364,210.054-171.144,380.957-381.348,381.348
		c-210.226-0.391-381.006-171.293-381.348-381.348c0.341-210.204,171.121-381.106,381.348-381.495
		C890.188,300.284,1060.968,471.186,1061.332,681.39z"/>
</g>
<g id="_x30_9" display="none">
	<path display="inline" d="M1020.14,457.443h470.83l-288.066-288.091c-39.749-39.749-39.749-104.207,0-143.956
		c39.749-39.749,104.208-39.749,143.958,0l461.898,461.847c0,0,0,0,0.025,0c4.734,4.734,8.957,9.95,12.672,15.549
		c1.527,2.265,2.546,4.733,3.869,7.1c1.909,3.436,3.97,6.769,5.497,10.433c1.221,2.977,1.882,6.057,2.799,9.111
		c1.044,3.282,2.289,6.489,2.951,9.925c1.019,5.191,1.35,10.458,1.578,15.726c0.051,1.399,0.433,2.698,0.433,4.122
		c0,1.578-0.407,3.054-0.485,4.607c-0.228,5.115-0.559,10.204-1.552,15.217c-0.713,3.614-2.01,6.999-3.105,10.484
		c-0.916,2.85-1.5,5.751-2.647,8.526c-1.628,3.945-3.816,7.584-5.955,11.273c-1.17,2.061-2.035,4.25-3.384,6.261
		c-3.791,5.649-8.066,10.942-12.876,15.726l-461.746,461.719c-19.875,19.875-45.933,29.824-71.966,29.824
		s-52.091-9.95-71.966-29.824c-39.749-39.749-39.749-104.182,0-143.905l288.066-288.093h-470.83
		c-225.668,0-409.273,183.605-409.273,409.299c0,56.213-45.575,101.79-101.79,101.79c-56.213,0-101.79-45.577-101.79-101.79
		C407.287,732.379,682.222,457.443,1020.14,457.443z M1736.743,1106.381c-56.213,0-101.79,45.577-101.79,101.79v237.527v75.554
		v63.339H158.996V207.244h84.867h76.318h479.278c56.215,0,101.79-45.577,101.79-101.79S855.673,3.664,799.459,3.664H311.733h-67.87
		h-84.867c-112.428,0-203.58,91.152-203.58,203.58v1377.347c0,112.426,91.152,203.58,203.58,203.58h1475.956
		c112.426,0,203.58-91.154,203.58-203.58v-63.339v-75.554v-237.527C1838.533,1151.958,1792.956,1106.381,1736.743,1106.381z"/>
</g>
<g id="_x31_0">
	<path d="M1791.184,1109.812c0-108.193-67.804-185.201-98.086-214.22c30.283-29.002,98.086-106.01,98.086-214.203
		c0-78.072-45.605-133.712-85.905-182.836c-29.327-35.769-54.682-66.667-54.484-97.004c0.306-36.943,2.527-65.223,28.911-92.6
		c38.333-39.867,51.868-79.191,41.364-120.159l-1.263-4.981l-114.473-112.47l-4.837-1.209
		c-40.787-10.503-80.347,3.014-120.176,41.383c-27.414,26.348-55.658,28.569-92.961,28.821c-30.284,0-61.036-25.23-96.661-54.467
		C1241.61,45.624,1185.972,0,1107.917,0c-105.937,0-181.952,64.969-212.325,96.119C865.219,64.969,789.186,0,683.266,0
		c-78.054,0-133.693,45.624-182.818,85.886c-35.643,29.219-66.395,54.449-97.004,54.449c-36.924-0.252-65.204-2.473-92.582-28.821
		c-39.847-38.333-79.605-51.778-120.176-41.383l-4.8,1.246L71.412,183.811l-1.299,4.999c-10.468,40.95,3.014,80.239,41.4,120.176
		c26.313,27.378,28.569,55.64,28.821,92.582c0.217,30.355-25.103,61.253-54.43,97.022C45.624,547.678,0,603.354,0,681.39
		C0,789.582,67.804,866.59,98.104,895.592C67.804,924.611,0,1001.619,0,1109.812c0,78.072,45.66,133.694,85.905,182.836
		c29.327,35.715,54.628,66.613,54.43,96.932c-0.252,36.979-2.491,65.24-28.821,92.672c-38.369,39.848-51.886,79.172-41.4,120.158
		l1.299,4.981l114.474,112.416l4.746,1.227c40.679,10.377,80.401-3.031,120.213-41.328c27.378-26.385,55.64-28.605,92.979-28.911
		c30.23,0,60.982,25.248,96.625,54.484c49.125,40.227,104.783,85.905,182.818,85.905c105.919,0,181.952-65.006,212.326-96.101
		c30.373,31.113,106.389,96.101,212.325,96.101c78.054,0,133.693-45.605,182.782-85.905c35.643-29.219,66.45-54.484,97.058-54.484
		c36.925,0.306,65.204,2.527,92.582,28.911c31.275,30.067,61.974,44.72,93.827,44.72c0.054,0,0.054,0,0.054,0
		c8.7,0,17.578-1.137,26.295-3.393l4.837-1.227l114.474-112.416l1.262-4.981c10.504-40.985-3.031-80.31-41.364-120.158
		c-26.385-27.396-28.604-55.694-28.911-92.672c-0.216-30.284,25.122-61.217,54.484-96.932
		C1745.525,1243.541,1791.184,1187.903,1791.184,1109.812z M1475.575,1477.975H317.739V317.595h1157.836V1477.975z"/>
</g>
<g id="_x31_1" display="none">
	<path display="inline" d="M895.803,565.587c-210.153,0-380.536,170.36-380.536,380.492c0,210.217,170.383,380.58,380.536,380.58
		s380.58-170.363,380.58-380.58C1276.382,735.947,1105.955,565.587,895.803,565.587z M895.803,1192.035
		c-135.588,0-245.912-110.347-245.912-245.956c0-135.566,110.324-245.868,245.912-245.868
		c135.632,0,245.956,110.302,245.956,245.868C1141.759,1081.688,1031.434,1192.035,895.803,1192.035z M1653.719,359.289h-267.602
		l-22.27-44.49c-26.973-53.847-90.229-92.915-150.417-92.915H591.365c-60.188,0-123.441,39.068-150.406,92.895l-22.281,44.51
		H136.001c-76.213,0-138.217,62.005-138.217,138.219v920.215c0,76.214,62.004,138.216,138.217,138.216h1517.718
		c76.214,0,138.217-62.002,138.217-138.216V497.508C1791.937,421.295,1729.933,359.289,1653.719,359.289z M1702.188,1417.723
		c0,26.666-21.802,48.467-48.468,48.467H136.001c-26.666,0-48.468-21.8-48.468-48.467V497.508c0-26.668,21.802-48.469,48.468-48.469
		H474.27c0.241-0.482,0.329-0.963,0.57-1.445l46.365-92.618c11.942-23.84,43.494-43.342,70.16-43.342h622.066
		c26.666,0,58.219,19.503,70.161,43.342l46.365,92.618c0.241,0.482,0.329,0.963,0.57,1.445h323.194
		c26.666,0,48.468,21.802,48.468,48.469V1417.723z"/>
</g>
<g id="_x31_2" display="none">
	<g display="inline">
		<path fill="none" d="M548.17,1557.999c0,57.494,46.584,104.26,103.899,104.26c57.269,0,104.034-46.766,104.034-104.26v-299.657
			H548.17V1557.999z"/>
		<rect x="960.924" y="475.27" fill="none" width="319.903" height="655.544"/>
		<path fill="none" d="M833.214,1130.77v-655.5H435.116c-87.71,0-169.736,34.273-230.751,96.187
			c-62.861,61.645-96.773,143.627-96.773,231.428c0,180.784,147.057,327.885,327.524,327.885H833.214z"/>
		<polygon fill="none" points="1408.265,1161.839 1686.321,1360.349 1686.321,246.234 1408.265,444.515 		"/>
		<path d="M1813.984-1.428l-489.752,349.078H925.297h-92.083H435.116c-122.117,0-236.388,47.756-320.941,133.708
			C27.594,566.542-20.116,680.768-20.116,802.929c0,246.26,196.495,447.038,440.848,454.69v300.334
			c0,127.889,103.718,231.744,231.381,231.744c127.754,0,231.563-103.809,231.744-231.744v-299.61h41.396h398.937l489.793,349.937
			V-1.428z M107.591,802.885c0-87.801,33.912-169.783,96.773-231.428c61.015-61.915,143.041-96.187,230.751-96.187h398.098v655.5
			H435.116C254.648,1130.77,107.591,983.669,107.591,802.885z M756.103,1557.999c0,57.494-46.766,104.26-104.034,104.26
			c-57.315,0-103.899-46.766-103.899-104.26v-299.657h207.934V1557.999z M960.924,475.27h319.903v655.544H960.924V475.27z
			 M1686.321,1360.349l-278.056-198.51V444.515l278.056-198.281V1360.349z"/>
	</g>
</g>
<g id="_x31_3" display="none">
	<g display="inline">
		<path fill="none" d="M148.863,800.869l142.713,212.071l7.268-313.337c-30.91-47.202-65.512-61.008-110.723-44.581
			C126.645,686.949,114.513,732.034,148.863,800.869z"/>
		<path fill="none" d="M1577.582,493.701c3.639,10.483,0.667,22.11-7.547,29.559l-564.315,511.493
			c-7.98,7.223-19.454,9.168-29.288,5.008c-9.907-4.161-16.517-13.672-16.95-24.407L945.36,659.552
			c-54.533-13.834-139.552-25.2-253.337-33.846c-29.243,20.363-69.159,33.314-118.865,38.565c-9.691,0.739-18.292,1.072-26.65,1.072
			c-39.772,0-74.914-7.601-104.608-22.606c-37.655,2.333-72.555,7.799-103.86,16.283c4.224,5.8,8.331,11.969,12.312,18.526
			c2.738,4.521,4.134,9.727,4.008,15.004l-9.484,408.687c-0.279,12.05-8.322,22.516-19.895,25.902
			c-11.564,3.386-23.993-1.117-30.72-11.096L101.977,830.311c-0.63-0.946-1.216-1.927-1.729-2.945
			c-49.21-97.205-26.433-176.172,64.125-222.356c0.919-0.468,1.864-0.883,2.828-1.243c9.051-3.404,18.013-6.007,26.839-7.808
			c-14.707,0.847-30.162,4.251-46.067,10.168c-45.815,23.614-74.644,52.894-85.686,87.055
			c-12.086,37.376-4.188,83.93,23.488,138.381l251.689,376.201c3.179,4.737,4.809,10.357,4.665,16.067l-4.422,178.919h638.725
			l-5.926-143.83c-0.288-7.079,2.161-14.014,6.827-19.364l615.543-703.03c6.827-7.772,17.418-11.114,27.451-8.637
			c9.727,2.405,19.58,4.404,29.541,5.989l-82.155-75.337C1570.143,470.015,1573.439,481.741,1577.582,493.701z"/>
		<path d="M1786.294,551.035c-61.513-90.414-142.659-163.86-241.188-218.303c-10.447-5.746-23.416-4.188-32.17,3.909l-10.231,9.466
			c-5.692,5.26-8.916,12.663-8.88,20.417c0.036,7.745,3.296,15.122,9.024,20.345l5.167,4.709
			c-2.594,32.466,1.251,66.884,11.674,102.628l-507.269,459.779l-12.573-316.76c-0.468-11.735-8.304-21.894-19.526-25.344
			C921.349,593.752,825,579.973,685.745,569.75c-7.07-0.477-14.05,1.684-19.526,6.169c-21.363,17.436-54.623,28.649-98.042,33.251
			c-42.888,3.206-78.904-2.99-106.481-18.58c-4.557-2.576-9.754-3.873-14.995-3.539c-38.763,1.945-75.184,6.935-108.526,14.851
			c-60.891-60.45-133.365-76.625-211.251-46.977c-0.928,0.351-1.837,0.757-2.72,1.207c-60.18,30.648-98.727,71.032-114.569,120.018
			c-16.878,52.2-7.592,113.461,27.622,182.08c0.486,0.946,1.027,1.864,1.621,2.747l247.717,370.257l-4.908,198.498
			c-0.189,7.457,2.648,14.662,7.853,20.012c5.206,5.332,12.348,8.34,19.805,8.34h695.924c7.529,0,14.752-3.08,19.958-8.502
			c5.224-5.44,7.998-12.771,7.691-20.3l-6.665-161.591l597.422-682.342c33.593,6.836,68.177,9.574,103.086,8.097
			c0.794-0.033,1.507-0.341,2.285-0.439l4.722,4.303c5.296,4.809,11.96,7.214,18.643,7.214c6.773,0,13.546-2.477,18.859-7.43
			l11.006-10.258C1792.274,577.532,1793.967,562.329,1786.294,551.035z M298.845,699.603l-7.268,313.337L148.863,800.869
			c-34.35-68.835-22.218-113.92,39.258-145.848C233.333,638.594,267.935,652.401,298.845,699.603z M1620.326,527.889
			c-10.033-2.477-20.624,0.865-27.451,8.637l-615.543,703.03c-4.665,5.35-7.115,12.285-6.827,19.364l5.926,143.83H337.707
			l4.422-178.919c0.144-5.71-1.486-11.33-4.665-16.067L85.774,831.563C58.098,777.111,50.2,730.557,62.286,693.181
			c11.042-34.161,39.871-63.44,85.686-87.055c15.905-5.917,31.36-9.322,46.067-10.168c-8.826,1.801-17.787,4.404-26.839,7.808
			c-0.964,0.36-1.909,0.775-2.828,1.243c-90.558,46.184-113.335,125.151-64.125,222.356c0.513,1.018,1.099,1.999,1.729,2.945
			l192.284,285.733c6.728,9.979,19.156,14.482,30.72,11.096c11.573-3.386,19.616-13.852,19.895-25.902l9.484-408.687
			c0.126-5.278-1.27-10.483-4.008-15.004c-3.981-6.557-8.088-12.726-12.312-18.526c31.306-8.484,66.205-13.951,103.86-16.283
			c29.694,15.004,64.836,22.606,104.608,22.606c8.358,0,16.959-0.333,26.65-1.072c49.706-5.251,89.621-18.202,118.865-38.565
			c113.785,8.646,198.804,20.012,253.337,33.846l14.122,355.802c0.432,10.736,7.043,20.246,16.95,24.407
			c9.835,4.161,21.309,2.215,29.288-5.008l564.315-511.493c8.214-7.448,11.186-19.075,7.547-29.559
			c-4.143-11.96-7.439-23.686-9.871-35.16l82.155,75.337C1639.906,532.293,1630.053,530.294,1620.326,527.889z"/>
	</g>
</g>
<g id="_x31_4" display="none">
	<g display="inline">
		<path fill="none" d="M329.117,355.924h1135.18c22.922,0,45.414-26.821,45.414-54.143c0-25.04-20.364-45.404-45.414-45.404
			h-349.274c-23.147,0-41.914-18.767-41.914-41.914V83.48c0-1.044-0.716-1.75-1.76-1.75H722.065c-1.044,0-1.74,0.706-1.74,1.75
			v130.983c0,23.147-18.767,41.914-41.914,41.914H329.117c-25.04,0-45.404,20.364-45.404,45.404
			C283.713,329.103,306.205,355.924,329.117,355.924z"/>
		<path fill="none" d="M1464.297,568.986H329.117c-14.214,0-29.052,6.682-37.811,17.018c-5.761,6.795-8.043,14.029-6.805,21.5
			l173.296,1047.923c1.443,8.719,10.438,52.229,45.967,52.229h785.896c35.468,0,44.534-43.552,45.987-52.291l173.245-1047.811
			c1.248-7.511-1.044-14.766-6.836-21.581C1493.318,575.647,1478.5,568.986,1464.297,568.986z"/>
		<path d="M1464.297,485.157H329.117c-38.978,0-77.024,17.447-101.778,46.663c-21.786,25.716-30.853,57.489-25.531,89.406
			l173.286,1047.872c12.106,73.207,63.813,122.387,128.67,122.387h785.896c64.755,0,116.452-49.159,128.69-122.387l173.245-1047.862
			c5.301-31.988-3.786-63.772-25.603-89.488C1541.249,502.573,1503.244,485.157,1464.297,485.157z M1508.892,607.554
			l-173.245,1047.811c-1.453,8.739-10.52,52.291-45.987,52.291H503.764c-35.529,0-44.524-43.511-45.967-52.229L284.501,607.503
			c-1.238-7.47,1.044-14.705,6.805-21.5c8.759-10.335,23.597-17.018,37.811-17.018h1135.18c14.203,0,29.021,6.662,37.76,16.987
			C1507.849,592.788,1510.141,600.043,1508.892,607.554z"/>
		<path d="M329.117,439.753h1135.18c68.848,0,129.243-64.468,129.243-137.972c0-71.263-57.98-129.233-129.243-129.233h-307.359
			V83.48c0-47.184-38.394-85.579-85.589-85.579H722.065c-47.185,0-85.569,38.394-85.569,85.579v89.068h-307.38
			c-71.263,0-129.233,57.97-129.233,129.233C199.884,375.285,260.269,439.753,329.117,439.753z M329.117,256.377h349.294
			c23.147,0,41.914-18.767,41.914-41.914V83.48c0-1.044,0.696-1.75,1.74-1.75h349.284c1.044,0,1.76,0.706,1.76,1.75v130.983
			c0,23.147,18.767,41.914,41.914,41.914h349.274c25.05,0,45.414,20.364,45.414,45.404c0,27.322-22.492,54.143-45.414,54.143
			H329.117c-22.912,0-45.404-26.821-45.404-54.143C283.713,276.741,304.077,256.377,329.117,256.377z"/>
	</g>
</g>
<g id="_x31_5" display="none">
	<g display="inline">
		<path fill="none" d="M970.491,850.096V216.367c0-25.73,20.862-46.592,46.592-46.592h145.829v-78.67H626.258v78.67h145.829
			c25.73,0,46.592,20.862,46.592,46.592V850.21c0,24.456-18.905,44.75-43.294,46.479l-264.96,18.814l74.348,431.935
			c0.171,1.024,0.318,2.07,0.432,3.117c0.102,1.001,13.479,115.252,97.598,213.852c82.367,96.529,183.446,125.831,211.383,132.338
			c27.96-6.688,130.04-36.696,211.668-132.338c84.13-98.622,97.507-212.851,97.621-214.011c0.114-0.933,0.273-2.025,0.432-2.958
			l74.302-431.958l-264.448-18.905C989.373,894.823,970.491,874.53,970.491,850.096z"/>
		<path d="M1369.529,843.931c-8.122-10.351-20.225-16.812-33.352-17.745l-272.502-19.474V262.96h145.829
			c25.73,0,46.592-20.862,46.592-46.592V44.513c0-25.73-20.862-46.592-46.592-46.592H579.665c-25.73,0-46.592,20.862-46.592,46.592
			v171.855c0,25.73,20.862,46.592,46.592,46.592h145.829v543.843l-273.013,19.383c-13.127,0.933-25.253,7.371-33.375,17.745
			c-8.122,10.351-11.477,23.66-9.248,36.628l82.856,481.394c2.139,17.7,20.782,147.558,119.2,262.924
			c117.96,138.253,268.259,164.347,274.595,165.394c2.503,0.41,5.028,0.614,7.564,0.614h0.512c2.537,0,5.062-0.205,7.564-0.614
			c6.336-1.047,156.612-27.141,274.595-165.394c98.417-115.366,117.072-245.201,119.211-262.924l82.811-481.394
			C1380.995,867.591,1377.651,854.282,1369.529,843.931z M1203.907,1347.438c-0.159,0.933-0.318,2.025-0.432,2.958
			c-0.114,1.16-13.491,115.389-97.621,214.011c-81.628,95.642-183.708,125.649-211.668,132.338
			c-27.937-6.506-129.016-35.809-211.383-132.338c-84.119-98.599-97.496-212.851-97.598-213.852
			c-0.114-1.047-0.262-2.093-0.432-3.117l-74.348-431.935l264.96-18.814c24.388-1.729,43.294-22.022,43.294-46.479V216.367
			c0-25.73-20.862-46.592-46.592-46.592H626.258v-78.67h536.654v78.67h-145.829c-25.73,0-46.592,20.862-46.592,46.592v633.729
			c0,24.434,18.883,44.727,43.271,46.479l264.448,18.905L1203.907,1347.438z"/>
	</g>
</g>
<g id="_x31_6" display="none">
	<g display="inline">
		<path fill="none" d="M1667.226,630.598c-48.312,54.118-93.579,114.039-134.542,178.097
			c-51.176,80.028-95.754,166.796-132.494,257.894c-7.175,17.788-26.434,27.492-45,22.68c-18.567-4.815-30.681-22.657-28.306-41.691
			c12.945-103.736,35.202-214.972,66.152-330.619c24.691-92.26,54.95-187.561,89.937-283.255
			c19.645-53.731,38.465-101.307,54.948-141.104c-28.416,23.929-60.715,53.238-95.088,88.2
			c-67.255,68.406-129.175,144.751-184.04,226.916c-68.53,102.628-126.206,214.711-171.428,333.136
			c-5.783,15.146-20.463,25.015-36.706,24.55c-16.206-0.438-30.369-11.062-35.324-26.499
			c-80.738-251.474-197.85-389.747-277.864-459.779c11.364,38.722,23.9,86.59,35.573,142.207
			c19.084,90.938,31.888,183.946,38.055,276.44c7.716,115.717,5.01,230.986-8.042,342.605
			c-2.184,18.676-17.638,32.982-36.426,33.721c-18.765,0.712-35.318-12.31-38.963-30.756
			c-32.146-162.748-84.872-313.306-156.71-447.493c-57.291-107.013-126.805-203.931-206.609-288.061
			c-51.875-54.686-101.14-96.618-142.211-127.558c23.384,50.234,51.368,113.7,80.197,186.633
			c42.367,107.179,77.643,212.457,104.849,312.909c34.17,126.169,55.665,245.166,63.885,353.686
			c1.41,18.605-10.834,35.506-28.952,39.964c-18.12,4.458-36.807-4.832-44.191-21.967
			c-36.374-84.402-80.987-165.526-132.602-241.119c-41.359-60.574-87.289-117.764-136.512-169.98
			c-13.469-14.288-26.46-27.426-38.78-39.413c21.18,57.725,46.083,129.335,70.142,207.422
			c35.086,113.871,61.621,219.488,78.87,313.439c18.251,99.416,26.132,186.182,23.529,260.182h1317.33
			c-4.633-95,0.119-206.968,14.184-333.426c12.837-115.431,33.432-243.564,61.21-380.602
			c23.74-117.113,48.813-221.247,67.945-296.014C1706.101,588.712,1687.215,608.205,1667.226,630.598z"/>
		<path d="M1814.636,431.495c-13.038-9.463-30.612-9.729-43.928-0.659c-2.823,1.923-70.168,48.232-158.341,146.539
			c-51.347,57.249-99.41,120.619-142.855,188.351c-5.811,9.058-11.54,18.2-17.187,27.418c4.534-18.467,9.309-37.081,14.317-55.812
			c24.052-89.952,53.556-182.948,87.692-276.407c58.25-159.471,110.462-266.3,110.979-267.355
			c7.411-15.085,4.088-33.242-8.186-44.724c-12.274-11.482-30.614-13.588-45.17-5.189c-4.016,2.317-99.739,58.155-221.32,181.301
			c-70.985,71.9-136.308,152.157-194.151,238.542c-54.097,80.789-101.733,167.138-142.208,257.688
			c-26.026-65.585-55.915-126.633-89.304-182.33c-39.436-65.784-83.841-124.335-131.984-174.028
			C749.394,378.54,682.53,348.193,679.724,346.944c-14.296-6.367-31.017-3.357-42.21,7.572
			c-11.193,10.931-14.583,27.596-8.559,42.035c0.383,0.919,38.708,93.648,69.78,242.542c18.209,87.25,30.406,176.457,36.254,265.142
			c1.9,28.82,3.127,57.599,3.683,86.297c-27.969-80.988-61.501-158.101-100.385-230.731
			c-60.509-113.024-134.033-215.498-218.53-304.574C274.971,302.593,148.618,242.331,143.31,239.84
			c-14.942-7.01-32.699-3.625-44.017,8.392c-11.317,12.017-13.631,29.948-5.736,44.444c0.669,1.229,67.753,124.991,138.165,303.294
			c41.23,104.408,75.521,206.821,101.919,304.397c10.968,40.541,20.571,80.26,28.792,119.054
			c-11.32-18.157-23.02-36.061-35.077-53.673c-43.87-64.081-92.609-124.569-144.865-179.785
			C92.939,691.339,24.187,644.984,21.304,643.057c-14.027-9.377-32.545-8.433-45.549,2.316
			c-13.004,10.75-17.411,28.762-10.841,44.303c0.634,1.5,64.071,152.141,122.489,341.873
			c53.304,173.12,113.295,415.027,96.389,584.342c-1.072,10.734,2.447,21.478,9.686,29.476c7.239,7.999,17.523,12.618,28.311,12.618
			h1398.868c10.675,0,20.863-4.526,28.093-12.379c7.23-7.854,10.844-18.404,9.963-29.042c-8.131-98.208-4.35-219.152,11.236-359.443
			c12.565-113.093,32.774-238.751,60.066-373.471c46.596-230,98.339-408.808,98.856-410.587
			C1833.369,457.592,1827.673,440.959,1814.636,431.495z M1655.296,867.834c-27.778,137.038-48.373,265.293-61.21,380.724
			c-14.064,126.458-18.816,238.426-14.184,333.426H262.572c2.603-74-5.278-160.767-23.529-260.182
			c-17.249-93.951-43.784-199.448-78.87-313.318c-24.06-78.087-48.962-149.758-70.142-207.483
			c12.319,11.987,25.311,25.094,38.78,39.382c49.223,52.217,95.153,109.392,136.512,169.965
			c51.615,75.593,96.229,156.709,132.602,241.112c7.385,17.136,26.071,26.422,44.191,21.964
			c18.118-4.458,30.362-21.36,28.952-39.966c-8.22-108.52-29.715-227.518-63.885-353.687
			c-27.206-100.452-62.482-205.73-104.849-312.91c-28.83-72.933-56.813-136.399-80.197-186.633
			c41.071,30.94,90.336,72.872,142.211,127.558c79.805,84.13,149.318,181.047,206.609,288.06
			c71.838,134.187,124.563,284.745,156.71,447.493c3.645,18.447,20.198,31.468,38.963,30.756
			c18.788-0.739,34.242-15.045,36.426-33.721c13.052-111.619,15.758-226.888,8.042-342.605
			c-6.167-92.494-18.971-185.502-38.055-276.44c-11.673-55.617-24.209-103.484-35.573-142.207
			c80.015,70.033,197.126,208.305,277.864,459.779c4.955,15.436,19.118,26.06,35.324,26.499c16.243,0.465,30.923-9.404,36.706-24.55
			c45.222-118.424,102.897-230.508,171.428-333.136c54.865-82.165,116.785-158.51,184.04-226.916
			c34.373-34.962,66.672-64.271,95.088-88.2c-16.483,39.797-35.304,87.374-54.948,141.104
			c-34.986,95.694-65.245,190.995-89.937,283.255c-30.95,115.646-53.207,226.883-66.152,330.619
			c-2.375,19.034,9.738,36.876,28.306,41.691c18.566,4.812,37.825-4.892,45-22.68c36.74-91.098,81.318-177.866,132.494-257.894
			c40.963-64.058,86.229-123.979,134.542-178.097c19.989-22.393,38.875-41.946,56.015-58.717
			C1704.109,646.648,1679.036,750.721,1655.296,867.834z"/>
	</g>
</g>
<g id="_x31_7" display="none">
	<g display="inline">
		<path fill="none" d="M1347.103,1634.404c-36.211-10.553-85.711-24.988-84.635-98.752l-2.365-49.2
			c-5.312-113.646,3.141-224.345,25.129-329.009l12.441-59.082c6.088-28.941,12.247-53.823,18.194-77.894
			c22.694-91.835,39.335-159.184,18.388-333.553c-95.982-37.332-165.775-82.049-243.722-156.361l-47.117,29.267
			c-6.529,4.068-13.059,8.294-19.588,12.529c-30.617,19.818-62.276,40.306-100.711,50.656l-109.393,29.629
			c-3.203,0.856-6.538,1.209-9.812,1.253l-621.225-6.168c-3.715,0.591-7.412,0.882-11.056,0.882
			c-69.088,0-86.796-88.773-103.923-174.616c-6.944-34.791-18.318-91.817-30.088-106.587l-8.4,0.432
			c-5.753,36.979,9.9,147.237,40.791,246.572c8.806,27.115,21.115,43.367,30.097,55.244c6.503,8.585,12.115,15.997,14.779,26.02
			c2.797,10.526,0.697,21.759-5.726,30.564l-6.256,8.585C25.066,843.53,42.978,949.544,76.798,1087.42
			c1.738,7.2,5.347,16.588,9.168,26.523c15.291,39.706,38.391,99.723,6.132,174.846l-17.153,40.253
			c-0.6,1.412-1.288,2.788-2.056,4.112c-31.597,53.964-43.041,154.428-25.509,223.957l12.176,47.735
			c18.723,75.052,48.732,113.011,89.232,113.011c14.056,0,25.544-3.582,30.397-6.406l-38.964-119.628
			c-15.344-45.794-8.003-240.545,29.841-293.151c14.276-19.835,31.809-22.8,40.985-22.8c4.606,0,9.194,0.688,13.65,2.065
			c15.265,4.729,25.615,18.9,25.465,34.888l-1.218,125.946c21.132,121.058,58.023,199.022,75.67,206.769l64.394,27.088
			c8.479,3.653,13.262,4.288,15.256,4.359c5.726-10.888,2.753-51.988-13.668-76.005c-0.971-1.429-1.844-2.929-2.612-4.482
			l-39.317-80.188c-25.959-39.635-26.947-103.87-18.565-126.528l5.744-16.553l75.423-195.563l12.9-83.382
			c0.829-5.347,1.059-12.582,1.306-20.241c0.918-28.623,2.832-88.199,64.65-97.34l92.946-12.335
			c7.491-0.988,15.106,0.371,21.767,3.935c124.773,66.564,234.96,97.588,401.609,140.77c11.294,2.929,20.47,11.135,24.653,22.023
			l20.77,54c1.765,4.553,2.577,9.406,2.4,14.294c-2.312,63.282-8.418,104.435-14.329,144.246c-3.547,23.912-6.9,46.5-9.194,72.829
			l-8.629,104.47c-0.106,1.182-0.247,2.365-0.476,3.547l-0.882,4.853c-6.688,36.211-15.018,81.282,2.329,102.14
			c13.853,16.623,46.094,20.117,70.694,20.117c3.071,0,6.229-0.053,9.476-0.159c2.153-0.106,4.288,0.053,6.423,0.371
			c14.047,2.047,29.206-8.223,32.594-17.312c0.6-1.606,1.465-3.918-2.682-8.329c-82.994-45.582-68.929-111.617-59.558-155.558
			l1.218-5.753l54.035-247.322c3.865-17.718,20.206-29.876,38.329-28.306c18.053,1.518,32.206,16.165,33.088,34.27l12.388,255.686
			c0.371,18.9,0.035,36.441-0.3,53.382c-0.935,48.635-1.818,94.57,16.623,113.364c16.041,16.359,55.217,20.488,114.14,11.841
			c7.218-4.535,7.341-8.347,7.394-9.724c0.177-4.747-2.7-9.812-5.012-12.212L1347.103,1634.404z"/>
		<path fill="none" d="M1146.44,1535.775c0.035-1.535,0.071-3.071,0.088-4.606c0.176-8.841,0.353-17.859,0.423-27.017
			C1144.534,1517.369,1143.74,1527.304,1146.44,1535.775z"/>
		<path fill="none" d="M1758.277,417.304l-7.006-1.271c-9.071-1.756-18.018-2.771-26.965-3.829
			c-32.029-3.768-71.876-8.462-102.034-39.82l-43.676-47.4c-40.253-43.041-78.829-78.344-105.67-96.652
			c-10.994-7.5-16.976-20.435-15.582-33.67l3.653-34.411c0.159-1.456,0.406-2.894,0.724-4.315l7.376-31.976
			c4.041-15.503-9.194-48.864-18.6-53.673c-9.018,0.353-26.753,14.665-30.882,28.014c-0.406,1.288-0.882,2.55-1.412,3.785
			l-23.294,53.964c-0.935,2.206-2.1,4.324-3.459,6.3l-54.053,78.635c-0.494,0.715-1.006,1.412-1.553,2.091L1194.634,419.81
			c56.17,54.158,124.287,98.937,211.022,138.837l35.7-28.217c0.741-0.591,1.518-1.147,2.294-1.676l25.694-17.206
			c5.965-3.988,12.953-6.115,20.118-6.115h12.441c5.929,0,11.753,1.456,16.976,4.235l36.776,19.57
			c26.4,14.223,56.717,22.015,85.552,22.015c28.782,0,80.417-8.029,102.776-61.782l8.576-20.753
			C1767.7,431.933,1763.994,421.813,1758.277,417.304z"/>
		<path d="M1384.25,1570.751c-2.029-1.077-4.165-1.941-6.371-2.612l-10.553-3.124c-33.017-9.618-33.017-9.618-32.576-29.064
			c0.035-0.847,0.018-1.712-0.018-2.559l-2.418-50.364c-5.047-107.505,2.912-212.045,23.647-310.709l12.441-59.064
			c5.841-27.706,11.823-51.97,17.629-75.441c24.547-99.317,43.941-177.766,17.206-381.738c-1.765-13.368-10.8-24.644-23.47-29.259
			c-105.987-38.629-173.681-82.455-258.686-167.46c-11.859-11.876-30.335-14.021-44.629-5.144l-71.241,44.241
			c-6.918,4.315-13.782,8.762-20.665,13.209c-27.123,17.559-52.747,34.147-80.285,41.558l-104.62,28.341l-619.778-6.159
			c-2.497-0.168-4.429,0.177-6.6,0.582c-14.153-13.297-27.432-79.852-34.667-116.143c-16.915-84.793-32.885-164.884-98.646-164.884
			c-0.018,0-0.035,0-0.053,0l-26.444,1.35c-16.323,0-30.838,7.509-40.879,21.15C-75.715,383.034,0.211,633.355,1.128,636.294
			c10.394,32.011,24.291,53.7,34.87,68.276c-93.061,140.575-57.847,284.098-29.435,399.915c2.806,11.682,7.244,23.206,11.947,35.417
			c13.676,35.541,27.82,72.282,7.129,120.476l-16.332,38.329c-40.261,70.605-54.044,188.716-31.994,276.174l12.159,47.647
			c34.562,138.528,105.714,167.61,159.316,167.61c14.797,0,65.064-2.682,90.458-37.111c13.006-17.647,16.315-39.847,9.123-63.07
			l-19.085-58.341c17.665,38.188,39.988,69.458,67.694,80.717l63.714,26.806c15.635,6.723,30.441,10.147,44.011,10.147
			c0,0,0.009,0,0.018,0c27.353-0.018,50.338-13.853,63.061-37.976c21.909-41.506,9.512-109.552-15.935-148.764l-39.379-80.311
			c-0.838-1.694-1.809-3.335-2.903-4.888c-11.029-15.671-13.597-53.435-11.426-63.158l81.97-214.145
			c0.926-2.418,1.597-4.923,1.994-7.482l13.5-87.211c1.5-9.688,1.809-19.5,2.118-28.976c0.274-8.612,0.724-22.482,2.744-28.129
			l80.691-10.712c122.875,64.164,231.678,95.823,389.15,136.852l11.435,29.7c-2.365,55.217-7.923,92.664-13.288,128.928
			c-3.565,23.929-7.218,48.67-9.723,77.329l-8.506,102.829l-0.547,3.035c-8.947,48.37-21.176,114.599,17.859,161.505
			c25.853,31.059,67.164,46.164,126.264,46.164c2.876,0,5.841-0.035,8.859-0.106c29.753,3.212,59.876-7.624,81.458-26.912
			c25.041,25.323,61.729,37.641,112.129,37.641c20.929,0,44.029-2.047,70.623-6.247c3.547-0.565,6.988-1.641,10.2-3.212
			c32.647-15.917,51.67-43.641,52.164-76.094C1429.726,1617.11,1411.232,1584.939,1384.25,1570.751z M1146.528,1531.169
			c-0.018,1.535-0.053,3.071-0.088,4.606c-2.7-8.471-1.906-18.406,0.512-31.623
			C1146.881,1513.31,1146.705,1522.328,1146.528,1531.169z M1349.556,1657.768c-58.923,8.647-98.099,4.518-114.14-11.841
			c-18.441-18.794-17.559-64.729-16.623-113.364c0.335-16.941,0.671-34.482,0.3-53.382l-12.388-255.686
			c-0.882-18.106-15.035-32.753-33.088-34.27c-18.123-1.571-34.464,10.588-38.329,28.306l-54.035,247.322l-1.218,5.753
			c-9.37,43.941-23.435,109.976,59.558,155.558c4.147,4.412,3.282,6.724,2.682,8.329c-3.388,9.088-18.547,19.359-32.594,17.312
			c-2.135-0.318-4.271-0.476-6.423-0.371c-3.247,0.106-6.406,0.159-9.476,0.159c-24.6,0-56.841-3.494-70.694-20.117
			c-17.347-20.859-9.018-65.929-2.329-102.14l0.882-4.853c0.229-1.182,0.371-2.365,0.476-3.547l8.629-104.47
			c2.294-26.329,5.647-48.917,9.194-72.829c5.912-39.811,12.018-80.964,14.329-144.246c0.177-4.888-0.635-9.741-2.4-14.294
			l-20.77-54c-4.182-10.888-13.359-19.094-24.653-22.023c-166.649-43.182-276.836-74.205-401.609-140.77
			c-6.662-3.565-14.276-4.924-21.767-3.935l-92.946,12.335c-61.817,9.141-63.732,68.717-64.65,97.34
			c-0.247,7.659-0.476,14.894-1.306,20.241l-12.9,83.382l-75.423,195.563l-5.744,16.553c-8.382,22.659-7.394,86.893,18.565,126.528
			l39.317,80.188c0.768,1.553,1.641,3.053,2.612,4.482c16.42,24.017,19.394,65.117,13.668,76.005
			c-1.994-0.071-6.776-0.706-15.256-4.359l-64.394-27.088c-17.647-7.747-54.538-85.711-75.67-206.769l1.218-125.946
			c0.15-15.988-10.2-30.159-25.465-34.888c-4.456-1.376-9.044-2.065-13.65-2.065c-9.176,0-26.709,2.965-40.985,22.8
			c-37.844,52.605-45.185,247.357-29.841,293.151l38.964,119.628c-4.853,2.823-16.341,6.406-30.397,6.406
			c-40.5,0-70.508-37.958-89.232-113.011l-12.176-47.735c-17.532-69.529-6.088-169.993,25.509-223.957
			c0.768-1.323,1.456-2.7,2.056-4.112l17.153-40.253c32.259-75.123,9.159-135.14-6.132-174.846
			c-3.821-9.935-7.429-19.323-9.168-26.523c-33.82-137.875-51.732-243.889,26.109-352.603l6.256-8.585
			c6.423-8.806,8.523-20.038,5.726-30.564c-2.665-10.023-8.276-17.435-14.779-26.02c-8.982-11.876-21.291-28.129-30.097-55.244
			C39.122,515.068,23.469,404.81,29.222,367.831l8.4-0.432c11.771,14.77,23.144,71.797,30.088,106.587
			c17.126,85.843,34.835,174.616,103.923,174.616c3.644,0,7.341-0.291,11.056-0.882l621.225,6.168
			c3.274-0.044,6.609-0.397,9.812-1.253l109.393-29.629c38.435-10.35,70.094-30.838,100.711-50.656
			c6.529-4.235,13.059-8.462,19.588-12.529l47.117-29.267c77.947,74.311,147.74,119.029,243.722,156.361
			c20.947,174.369,4.306,241.719-18.388,333.553c-5.947,24.07-12.106,48.953-18.194,77.894l-12.441,59.082
			c-21.988,104.664-30.441,215.363-25.129,329.009l2.365,49.2c-1.076,73.764,48.423,88.199,84.635,98.752l4.835,1.429
			c2.312,2.4,5.188,7.465,5.012,12.212C1356.897,1649.421,1356.774,1653.233,1349.556,1657.768z"/>
		<path d="M1788.029,350.943c-3.265-1.712-6.759-2.921-10.376-3.582l-13.041-2.374c-10.412-2.003-21.141-3.3-31.853-4.562
			c-24.776-2.921-46.182-5.444-57.864-17.576l-43.323-47.029c-22.271-23.815-62.276-64.791-100.146-94.199l1.235-11.576
			l6.635-28.835c11.665-44.744-13.535-116.779-60.423-137.399c-8.788-3.618-18.212-5.453-28.006-5.453
			c-41.223,0-85.429,34.094-99.617,76.438l-21.423,49.588l-51.264,74.585l-160.411,200.778
			c-11.206,14.029-10.412,34.147,1.853,47.258c70.111,74.92,160.516,135.987,276.386,186.696c4.641,2.038,9.582,3.035,14.488,3.035
			c7.994,0,15.918-2.656,22.412-7.791l51.776-40.932l12.035-8.056l24.423,13.006c36.582,19.712,79.094,30.573,119.681,30.573
			c78.441,0,141.811-39.732,169.552-106.376l8.629-20.885C1848.294,426.031,1837.741,377.14,1788.029,350.943z M1752.559,468.718
			l-8.576,20.753c-22.359,53.753-73.994,61.782-102.776,61.782c-28.835,0-59.152-7.791-85.552-22.015l-36.776-19.57
			c-5.223-2.779-11.047-4.235-16.976-4.235h-12.441c-7.165,0-14.153,2.126-20.118,6.115l-25.694,17.206
			c-0.776,0.529-1.553,1.085-2.294,1.676l-35.7,28.217c-86.735-39.9-154.852-84.679-211.022-138.837l141.211-176.734
			c0.547-0.679,1.059-1.376,1.553-2.091l54.053-78.635c1.359-1.976,2.523-4.094,3.459-6.3l23.294-53.964
			c0.529-1.235,1.006-2.497,1.412-3.785c4.129-13.35,21.865-27.662,30.882-28.014c9.406,4.809,22.641,38.17,18.6,53.673
			l-7.376,31.976c-0.318,1.421-0.565,2.859-0.724,4.315l-3.653,34.411c-1.394,13.235,4.588,26.17,15.582,33.67
			c26.841,18.309,65.417,53.611,105.67,96.652l43.676,47.4c30.159,31.359,70.005,36.053,102.034,39.82
			c8.947,1.059,17.894,2.074,26.965,3.829l7.006,1.271C1763.994,421.813,1767.7,431.933,1752.559,468.718z"/>
	</g>
</g>
<g id="_x31_8" display="none">
	<g display="inline">
		<path fill="none" d="M1039.103,1669.311c32.728,32.728,76.226,50.75,122.5,50.75c46.022,0,89.3-17.837,121.962-50.245
			c0.252-0.269,0.522-0.555,0.791-0.825h-0.017c32.947-33.149,50.817-77.236,50.296-124.149c-0.017-0.942,0.017-1.901,0.084-2.844
			l0.37-168.639l-168.724,0.387c-0.925,0.067-1.733,0.118-2.793,0.084l-2.019-0.017c-46.123,0-89.469,17.87-122.096,50.296
			c-0.387,0.387-0.774,0.757-1.195,1.127c-32.091,32.527-49.768,75.536-49.858,121.277v0.694
			C988.494,1593.35,1006.474,1636.698,1039.103,1669.311z"/>
		<path fill="none" d="M756.133,1424.109c-32.619-32.425-75.965-50.296-122.054-50.296l-2.036,0.017
			c-0.892,0.017-1.918-0.017-2.877-0.084l-168.631-0.387l0.362,168.74c0.076,0.926,0.101,1.851,0.093,2.776
			c-0.547,46.88,17.306,90.949,50.27,124.115c0.353,0.353,0.892,0.926,1.228,1.296c31.803,31.769,75.292,49.774,121.549,49.774
			c46.257,0,89.746-18.005,122.458-50.716c32.72-32.712,50.733-76.192,50.733-122.45c0-45.988-17.82-89.25-50.186-121.911
			C756.731,1424.698,756.428,1424.412,756.133,1424.109z"/>
		<path fill="none" d="M897.824,273.551c-179.047,0-324.718,145.662-324.718,324.701s145.671,324.701,324.718,324.701
			c179.039,0,324.692-145.662,324.692-324.701S1076.863,273.551,897.824,273.551z"/>
		<path fill="none" d="M919.481,1141.467c0-12.048,6.293-23.221,16.591-29.464c10.332-6.276,23.154-6.663,33.805-1.094
			c25.038,13.058,51.776,19.688,79.474,19.688c95.476,0,173.166-77.69,173.166-173.183c0-19.031,15.43-34.462,34.462-34.462
			c95.493,0,173.183-77.69,173.183-173.174c0-48.276-19.553-93.154-55.041-126.362c-6.966-6.512-10.921-15.624-10.921-25.165
			c0-9.532,3.954-18.644,10.904-25.156c35.505-33.216,55.041-78.094,55.041-126.353c0-95.501-77.69-173.191-173.183-173.191
			c-19.031,0-34.462-15.43-34.462-34.462c0-95.493-77.69-173.183-173.166-173.183c-48.293,0-93.171,19.553-126.353,55.066
			c-13.007,13.95-37.314,13.941-50.338,0.008c-33.225-35.513-78.094-55.075-126.345-55.075c-95.501,0-173.191,77.69-173.191,173.183
			c0,19.031-15.43,34.462-34.462,34.462c-95.493,0-173.183,77.69-173.183,173.191c0,48.268,19.561,93.129,55.066,126.337
			c6.975,6.52,10.929,15.632,10.929,25.173c0,9.541-3.954,18.653-10.929,25.173c-35.505,33.208-55.066,78.077-55.066,126.353
			c0,95.484,77.69,173.174,173.183,173.174c19.031,0,34.462,15.43,34.462,34.462c0,95.493,77.69,173.183,173.191,173.183
			c27.689,0,54.427-6.63,79.474-19.688c10.685-5.57,23.482-5.166,33.805,1.094c10.298,6.243,16.591,17.416,16.591,29.464v578.594
			h43.312v-172.854c0-0.116-0.017-0.229-0.017-0.345c0-0.116,0.017-0.229,0.017-0.345V1141.467z M504.184,598.252
			c0-217.042,176.59-393.624,393.641-393.624c217.034,0,393.615,176.582,393.615,393.624s-176.582,393.624-393.615,393.624
			C680.774,991.876,504.184,815.294,504.184,598.252z"/>
		<path d="M1049.351,1199.52c122.534,0,224.101-91.505,239.935-209.798c118.293-15.834,209.798-117.401,209.798-239.943
			c0-55.125-19.216-108.761-53.56-151.535c34.344-42.766,53.543-96.393,53.543-151.501c0-122.55-91.505-224.126-209.798-239.969
			c-15.834-118.276-117.401-209.79-239.935-209.79c-55.108,0-108.719,19.2-151.459,53.51c-42.833-34.714-95.552-53.51-151.577-53.51
			c-122.55,0-224.126,91.513-239.969,209.79c-118.276,15.843-209.79,117.418-209.79,239.969c0,55.125,19.216,108.744,53.577,151.51
			c-34.361,42.766-53.577,96.393-53.577,151.526c0,122.542,91.513,224.109,209.79,239.943
			c15.843,118.293,117.418,209.798,239.969,209.798c20.773,0,41.15-2.642,60.947-7.875v186.27c-0.7-0.718-1.3-1.506-2.011-2.217
			l-0.017,0.017c-0.311-0.32-0.623-0.623-0.942-0.926c-45.567-45.079-105.984-69.899-170.196-69.899h-0.412
			c-0.715-0.034-1.43-0.067-2.154-0.067l-205.44-0.471c-8.792-0.101-17.963,3.618-24.441,10.096
			c-6.487,6.478-10.113,15.279-10.096,24.433l0.446,205.457c0,0.69,0.025,1.38,0.067,2.07
			c-0.143,64.632,24.769,125.327,69.495,170.305c0.362,0.404,0.925,0.993,1.304,1.363c45.727,45.736,106.523,70.909,171.189,70.909
			s125.461-25.173,171.189-70.909c0.713-0.713,1.316-1.505,2.019-2.225v38.672c0,19.031,15.43,34.462,34.462,34.462h112.236
			c19.031,0,34.462-15.43,34.462-34.462v-38.65c0.686,0.703,1.274,1.474,1.969,2.17c45.736,45.736,106.531,70.942,171.214,70.942
			c0.017,0,0.017,0,0.017,0c64.649,0,125.445-25.19,171.163-70.909c0.286-0.286,0.606-0.606,0.909-0.942
			c45.231-45.736,69.983-106.228,69.899-170.642c0.034-0.707,0.067-1.43,0.067-2.154l0.438-205.457
			c0.017-9.154-3.618-17.954-10.096-24.433c-6.462-6.462-15.228-10.096-24.365-10.096c-0.034,0-0.051,0-0.084,0l-205.457,0.471
			c-0.69,0-1.397,0.034-2.087,0.067h-0.438c-64.06,0-124.334,24.685-169.868,69.529c-0.471,0.438-0.925,0.858-1.312,1.245
			c-0.695,0.695-1.283,1.468-1.969,2.171v-186.19C1008.192,1196.878,1028.57,1199.52,1049.351,1199.52z M756.495,1669.345
			c-32.711,32.712-76.201,50.716-122.458,50.716c-46.257,0-89.746-18.005-121.549-49.774c-0.337-0.37-0.875-0.942-1.228-1.296
			c-32.964-33.166-50.817-77.236-50.27-124.115c0.008-0.926-0.017-1.851-0.093-2.776l-0.362-168.74l168.631,0.387
			c0.959,0.067,1.986,0.101,2.877,0.084l2.036-0.017c46.089,0,89.435,17.87,122.054,50.296c0.294,0.303,0.597,0.589,0.909,0.875
			c32.367,32.661,50.186,75.923,50.186,121.911C807.228,1593.152,789.215,1636.633,756.495,1669.345z M1038.262,1425.236
			c0.421-0.37,0.808-0.74,1.195-1.127c32.627-32.425,75.974-50.296,122.096-50.296l2.019,0.017c1.06,0.034,1.868-0.017,2.793-0.084
			l168.724-0.387l-0.37,168.639c-0.067,0.942-0.101,1.901-0.084,2.844c0.522,46.913-17.349,91-50.296,124.149h0.017
			c-0.269,0.269-0.539,0.555-0.791,0.825c-32.661,32.409-75.94,50.245-121.962,50.245c-46.274,0-89.772-18.022-122.5-50.75
			c-32.63-32.613-50.609-75.961-50.7-122.104v-0.694C988.494,1500.772,1006.171,1457.764,1038.262,1425.236z M919.481,1547.206
			v172.854h-43.312v-578.594c0-12.048-6.293-23.221-16.591-29.464c-10.323-6.26-23.12-6.663-33.805-1.094
			c-25.047,13.058-51.785,19.688-79.474,19.688c-95.501,0-173.191-77.69-173.191-173.183c0-19.031-15.43-34.462-34.462-34.462
			c-95.493,0-173.183-77.69-173.183-173.174c0-48.276,19.561-93.145,55.066-126.353c6.975-6.52,10.929-15.632,10.929-25.173
			c0-9.541-3.954-18.653-10.929-25.173c-35.505-33.208-55.066-78.069-55.066-126.337c0-95.501,77.69-173.191,173.183-173.191
			c19.031,0,34.462-15.43,34.462-34.462c0-95.493,77.69-173.183,173.191-173.183c48.251,0,93.12,19.561,126.345,55.075
			c13.024,13.933,37.331,13.941,50.338-0.008c33.183-35.513,78.06-55.066,126.353-55.066c95.476,0,173.166,77.69,173.166,173.183
			c0,19.031,15.43,34.462,34.462,34.462c95.493,0,173.183,77.69,173.183,173.191c0,48.26-19.536,93.137-55.041,126.353
			c-6.95,6.512-10.904,15.624-10.904,25.156c0,9.541,3.954,18.653,10.921,25.165c35.488,33.208,55.041,78.085,55.041,126.362
			c0,95.484-77.69,173.174-173.183,173.174c-19.031,0-34.462,15.43-34.462,34.462c0,95.493-77.69,173.183-173.166,173.183
			c-27.697,0-54.435-6.63-79.474-19.688c-10.651-5.57-23.474-5.183-33.805,1.094c-10.298,6.243-16.591,17.416-16.591,29.464v405.049
			c0,0.116-0.017,0.229-0.017,0.345C919.464,1546.977,919.481,1547.091,919.481,1547.206z"/>
		<path d="M1291.44,598.252c0-217.042-176.582-393.624-393.615-393.624c-217.05,0-393.641,176.582-393.641,393.624
			s176.59,393.624,393.641,393.624C1114.858,991.876,1291.44,815.294,1291.44,598.252z M897.824,922.953
			c-179.047,0-324.718-145.662-324.718-324.701s145.671-324.701,324.718-324.701c179.039,0,324.692,145.662,324.692,324.701
			S1076.863,922.953,897.824,922.953z"/>
	</g>
</g>
</svg>
