<?xml version="1.0" encoding="UTF-8" standalone="no"?>
<svg width="63px" height="63px" viewBox="0 0 63 63" version="1.1" xmlns="http://www.w3.org/2000/svg" xmlns:xlink="http://www.w3.org/1999/xlink" xmlns:sketch="http://www.bohemiancoding.com/sketch/ns">
    <!-- Generator: Sketch 3.3.3 (12081) - http://www.bohemiancoding.com/sketch -->
    <title>lightbulb</title>
    <desc>Created with Sketch.</desc>
    <defs></defs>
    <g id="Page-1" stroke="none" stroke-width="1" fill="none" fill-rule="evenodd" sketch:type="MSPage">
        <g id="Artboard-1-Copy-8" sketch:type="MSArtboardGroup" transform="translate(-777.000000, -439.000000)">
            <g id="idea-box-copy-2" sketch:type="MSLayerGroup" transform="translate(623.000000, 439.000000)">
                <g id="lightbulb" transform="translate(154.000000, 0.000000)" sketch:type="MSShapeGroup">
                    <circle id="Oval-1" fill="#C4E5FF" cx="31.5" cy="31.5" r="31.5"></circle>
                    <circle id="Oval-2" fill="#FFFFFF" cx="31" cy="27" r="13"></circle>
                    <rect id="Rectangle-8" fill="#FFFFFF" x="26" y="36" width="10" height="8"></rect>
                    <path id="Fill-9" fill="#F8F9F9"></path>
                    <path id="Stroke-10" stroke="#747F89" stroke-width="0.611027027" stroke-linejoin="round"></path>
                    <path d="M30.7451865,30.8008418 L34.6630124,30.8008418 C35.9531092,30.8008418 37,29.7264164 37,28.399853 C37,27.0744254 35.9531092,26 34.6630124,26 C33.3729157,26 32.3271304,27.0744254 32.3271304,28.399853 L32.3271304,43 M31.253708,30.8008418 L27.3358821,30.8008418 C26.0457854,30.8008418 25,29.7264164 25,28.399853 C25,27.0744254 26.0457854,26 27.3358821,26 C28.6270843,26 29.6728696,27.0744254 29.6728696,28.399853 L29.6728696,43" id="Stroke-11" stroke="#F7C649" stroke-width="1.5" stroke-linecap="round" stroke-linejoin="round"></path>
                    <path d="M27.2088844,48.8222914 C27.9915169,50.1268991 29.3947825,51 30.9994527,51 C32.6052175,51 34.0073885,50.1268991 34.7911156,48.8222914 L37,48.8222914 L37,42 L25,42 L25,48.8222914 L27.2088844,48.8222914 L27.2088844,48.8222914 Z" id="Fill-12" fill="#60666D"></path>
                </g>
            </g>
        </g>
    </g>
</svg>