<?xml version="1.0" encoding="utf-8"?>
<!-- Generator: Adobe Illustrator 17.1.0, SVG Export Plug-In . SVG Version: 6.00 Build 0)  -->
<!DOCTYPE svg PUBLIC "-//W3C//DTD SVG 1.1//EN" "http://www.w3.org/Graphics/SVG/1.1/DTD/svg11.dtd">
<svg version="1.1" id="Layer_1" xmlns="http://www.w3.org/2000/svg" xmlns:xlink="http://www.w3.org/1999/xlink" x="0px" y="0px"
	 viewBox="0 0 367 205" enable-background="new 0 0 367 205" xml:space="preserve">
<path fill="#33454E" d="M365.998,90.106c0-24.651-18.658-41.693-48.022-41.693c-40.472,0-69.555,30.206-80.085,64.894
	c-0.629-0.131-1.333-0.228-2.115-0.288c-1.543-0.118-3.226-0.178-5.046-0.178c-1.347,0-2.771,0.041-4.274,0.119
	c-1.504,0.08-2.968,0.199-4.393,0.355c0.237-5.454,0.475-11.184,0.712-17.193c0.237-6.006,0.454-11.956,0.653-17.845
	c0.197-5.888,0.375-11.561,0.534-17.016c0.158-5.454,0.297-10.295,0.415-14.524c0.119-4.228,0.237-7.687,0.356-10.375
	c0.119-2.687,0.178-4.269,0.178-4.744c0.078-0.789-0.08-1.363-0.475-1.718c-0.397-0.356-0.872-0.573-1.425-0.653
	c-0.555-0.077-1.089-0.019-1.603,0.178c-0.516,0.198-0.812,0.456-0.89,0.77c-0.317,1.503-0.635,2.609-0.95,3.32
	c-0.317,0.711-0.653,1.126-1.009,1.245c-0.356,0.119-0.733,0.041-1.128-0.237c-0.397-0.276-0.792-0.652-1.187-1.127
	c-0.475-0.474-0.872-0.631-1.187-0.474c-0.317,0.159-0.653,0.554-1.009,1.186c-0.356,0.633-0.792,1.443-1.306,2.431
	c-0.516,0.989-1.169,2.036-1.959,3.142c-0.713,1.108-1.347,2.016-1.9,2.726c-0.555,0.712-1.029,1.404-1.425,2.076
	c-0.397,0.672-0.712,1.405-0.95,2.193c-0.237,0.791-0.397,1.779-0.475,2.965c-0.317,3.32-0.712,7.351-1.187,12.094
	c-0.475,4.743-0.97,9.96-1.484,15.651c-0.516,5.692-1.029,11.72-1.543,18.082c-0.516,6.364-1.009,12.787-1.484,19.267
	c-5.621,0.317-11.596,0.533-17.927,0.653c-6.333,0.118-12.525,0.219-18.579,0.296c-6.055,0.08-11.753,0.16-17.096,0.237
	c-5.342,0.08-9.913,0.159-13.712,0.237c5.064-3.558,10.961-8.141,17.689-13.755c6.726-5.611,13.653-12.291,20.776-20.038
	c7.123-7.747,14.167-16.619,21.132-26.62c6.964-9.999,13.297-21.164,18.995-33.496c0.237-0.474,0.137-1.086-0.297-1.838
	c-0.436-0.75-1.009-1.402-1.721-1.956c-0.712-0.552-1.466-0.889-2.256-1.008c-0.792-0.118-1.425,0.178-1.899,0.889
	c-3.562,4.902-6.927,9.883-10.091,14.94c-3.167,5.06-6.529,10.218-10.091,15.474c-3.562,5.258-7.5,10.653-11.812,16.185
	c-4.315,5.534-9.32,11.166-15.018,16.896c-5.698,5.733-12.287,11.62-19.767,17.667c-7.479,6.047-16.166,12.195-26.059,18.438
	c-0.397,0.237-0.852,0.456-1.365,0.652c-0.475,0.182-0.836,0.421-1.108,0.703c-10.319,4.924-23.053,8.613-38.703,8.613
	c-14.07,0-24.776-5.174-30.587-15.217c-3.365-5.783-4.588-15.825-3.976-20.999c57.504,1.217,97.573-10.956,97.573-48.997
	c0-24.651-18.658-41.693-48.022-41.693c-51.387,0-84.421,48.692-84.421,93.429c0,36.215,19.882,61.17,61.174,61.17
	c14.035,0,40.104-4.506,59.814-14.983c1.43-0.054,3.023-0.113,4.816-0.179c3.244-0.118,6.925-0.255,11.041-0.414
	c4.114-0.158,8.388-0.297,12.822-0.415c4.432-0.119,8.943-0.237,13.534-0.356c4.589-0.119,8.982-0.237,13.178-0.356
	c4.194-0.119,8.032-0.196,11.516-0.237c3.482-0.039,6.411-0.059,8.785-0.059h0.712c-0.397,6.64-0.694,4.849-0.891,10.817
	c-0.198,5.97-0.297,11.403-0.297,16.304c0,2.214,0,4.288,0,6.225c0,1.938,0.078,3.735,0.238,5.395
	c0.078,1.423,0.217,2.413,0.415,2.965c0.197,0.554,0.375,0.967,0.534,1.245c0.158,0.276,0.315,0.573,0.475,0.889
	c0.157,0.315,0.315,0.988,0.475,2.016c0.078,0.315,0.336,0.513,0.772,0.593c0.434,0.078,0.929,0.177,1.484,0.296
	c0.553,0.119,1.048,0.256,1.484,0.415c0.434,0.158,0.653,0.434,0.653,0.83c0,0.395,0.137,0.611,0.416,0.652
	c0.276,0.039,0.612,0.059,1.009,0.059c0.395,0,0.79,0.019,1.187,0.06c0.395,0.039,0.672,0.255,0.831,0.652
	c0.237,0.632,0.573,0.929,1.009,0.89c0.434-0.041,0.89-0.198,1.365-0.474c0.475-0.278,0.929-0.575,1.365-0.89
	c0.434-0.316,0.81-0.474,1.128-0.474c0.315,0,0.692,0.039,1.128,0.119c0.434,0.078,0.89,0.098,1.365,0.059
	c0.475-0.041,0.968-0.198,1.484-0.474c0.514-0.278,1.048-0.732,1.603-1.364c0.395-0.712,0.672-2.154,0.831-4.328
	c0.158-2.173,0.276-5.414,0.356-9.723c0.078-4.308,0.197-9.821,0.356-16.541c0.158-6.718,0.622-6.778,1.096-16.58
	c4.511,0,8.471,0,11.578,0c0.282,0,0.535-0.001,0.792-0.002c-0.047,1.205-0.076,2.408-0.076,3.608
	c0,36.214,19.882,61.17,61.174,61.17c18.047,0,37.928-3.956,52.61-11.564l-3.365-25.868c-10.706,5.478-24.164,9.738-40.987,9.738
	c-14.07,0-24.776-5.173-30.587-15.216c-3.365-5.782-4.588-15.825-3.976-20.999C325.928,140.32,365.998,128.147,365.998,90.106z
	 M313.388,74.89c11.317,0,18.964,5.782,18.964,15.521c0,17.651-23.552,22.825-60.257,22.216
	C276.377,94.671,291.059,74.89,313.388,74.89z M81.829,27.479c11.317,0,18.964,5.782,18.964,15.521
	c0,17.651-23.552,22.824-60.257,22.216C44.818,47.26,59.5,27.479,81.829,27.479z"/>
<text transform="matrix(1 0 0 1 98.8291 188)" fill="#33454E" font-family="'Whitney-Semibold'" font-size="42">2014</text>
</svg>
